<svg version="1.1" preserveAspectRatio="none" xmlns="http://www.w3.org/2000/svg" width="500" height="500" viewBox="0 0 500 500"><rect width="100%" height="100%" fill="#6F0000" fill-opacity="1"/><svg viewBox="475.2593 306.0185 162.7502 145" width="333" height="296.6816630640085" x="83.5px" y="101.6592px" xmlns="http://www.w3.org/2000/svg" xmlns:xlink="http://www.w3.org/1999/xlink" preserveAspectRatio="none"><defs></defs><style>.aD6z1nYkhcolor {fill:#FFDAFE;fill-opacity:1;}.ashadowqEFfkr2kjo-floo {flood-color:#FFDAFE;flood-opacity:1;}.icon3-str {stroke:#B22D2D;stroke-opacity:1;}.text {fill:#FFDAFE;fill-opacity:1;}</style><defs>
      <filter
        x="475.2593"
        y="306.0185"
        width="162.7502"
        height="120"
        id="LwNMZKse4"
        filterUnits="userSpaceOnUse"
        primitiveUnits="userSpaceOnUse"
        color-interpolation-filters="sRGB">
        <feMerge><feMergeNode in="SourceGraphic" /></feMerge>
      </filter></defs><g opacity="1" transform="rotate(0 475.2593 306.0185)">
<svg width="162.7502" height="120" x="475.2593" y="306.0185" version="1.1" preserveAspectRatio="none" viewBox="0.957 -28.5549 91.30860000000001 67.3241">
  <g transform="matrix(1 0 0 1 0 0)" class="aD6z1nYkhcolor"><path id="id-D6z1nYkh7" d="M10.53-13.89L10.53-13.89Q9.49-13.16 7.52-13.16L7.52-13.16Q4.75-13.22 2.85-15Q0.96-16.78 0.96-19.39L0.96-19.39Q0.96-23.18 3.95-25.86Q6.93-28.54 11.48-28.55L11.48-28.55Q15.35-28.57 18.78-26.74Q22.21-24.90 24.79-23.05L24.79-23.05Q26.58-21.70 28.11-23.05L28.11-23.05Q28.54-23.44 28.85-23.13Q29.16-22.83 28.79-22.48L28.79-22.48L25.43-19.67Q23.18-18.03 20.29-19.94L20.29-19.94Q17.50-21.88 14.42-23.52Q11.35-25.16 8.79-25.16L8.79-25.16Q5.78-25.16 3.99-23.46Q2.21-21.76 2.19-19.59L2.19-19.59Q2.09-14.45 7.36-13.93L7.36-13.93Q8.87-13.75 10.06-14.61L10.06-14.61Q10.51-14.88 10.72-14.53Q10.94-14.18 10.53-13.89ZM2.01-7.66L2.01-7.66Q4.36-9.55 6.02-10.23L6.02-10.23Q8.40-11.25 9.71-9.88L9.71-9.88Q13.34-6.13 15.78-4.42Q18.22-2.71 20.01-2.34Q21.80-1.97 23.16-2.60Q24.53-3.22 26.04-4.14L26.04-4.14Q26.62-4.53 26.88-4.19Q27.13-3.85 26.68-3.48L26.68-3.48Q24.80-1.93 22.73-0.81Q20.66 0.31 18.19 0.34Q15.72 0.37 12.73-1.02Q9.75-2.40 6.04-5.92L6.04-5.92Q4.80-7.11 3.61-7.09L3.61-7.09Q2.97-7.09 2.25-6.74L2.25-6.74Q1.78-6.52 1.61-6.88Q1.45-7.23 2.01-7.66ZM15.31-21.74L15.31-21.74Q13.89-20.63 14.55-19.38Q15.21-18.14 17.40-16.46L17.40-16.46Q21.19-13.54 20.89-10.90Q20.59-8.26 15.55-6.39L15.55-6.39Q15.14-6.21 14.95-6.50Q14.77-6.80 15.14-7.03L15.14-7.03Q17.05-8.26 16.53-9.69Q16.02-11.11 13.59-12.97L13.59-12.97Q10.74-15.10 10.48-17.49Q10.21-19.88 14.80-22.34L14.80-22.34Q15.27-22.60 15.51-22.33Q15.74-22.07 15.31-21.74Z M33.16-4.59L33.16-4.59L33.03-15.29Q33.03-15.66 32.91-15.90L32.91-15.90Q32.44-16.66 32.11-16.27L32.11-16.27L31.33-15.47Q31.02-15.12 30.73-15.39Q30.45-15.66 30.82-16.15L30.82-16.15Q31.68-17.23 32.36-18.30Q33.05-19.38 33.77-20.43L33.77-20.43Q34.08-20.80 34.49-20.41L34.49-20.41Q35.31-19.41 36.09-18.66Q36.88-17.91 38.32-17.07L38.32-17.07Q38.73-16.91 38.68-16.70Q38.63-16.48 38.42-16.46L38.42-16.46Q37.91-16.27 37.52-15.79Q37.13-15.31 37.13-14.20L37.13-14.20L37.13-5.94Q37.13-3.95 37.87-3.50L37.87-3.50Q38.73-2.99 39.28-3.93L39.28-3.93Q39.47-4.30 39.76-4.09Q40.04-3.89 39.75-3.42L39.75-3.42Q39.16-2.50 38.65-1.57Q38.14-0.64 37.62 0.27L37.62 0.27Q37.25 0.82 36.70 0.51L36.70 0.51Q34.94-0.33 34.05-1.54Q33.16-2.75 33.16-4.59ZM36.00-27.77L36.00-27.77Q38.16-27.77 37.97-25.68L37.97-25.68Q37.85-24.63 36.65-23.56Q35.45-22.50 34.75-22.52L34.75-22.52Q34.04-22.52 33.67-23.63Q33.30-24.75 33.38-25.68L33.38-25.68Q33.44-26.58 34.25-27.18Q35.06-27.77 36.00-27.77Z M60.64-16.33L60.64-16.33L60.63-5.61Q60.63-4.98 60.92-4.80L60.92-4.80L62.32-4.00Q62.66-3.83 63.67-4.94L63.67-4.94Q63.89-5.18 64.15-4.98Q64.41-4.79 64.18-4.55L64.18-4.55Q62.13-2.27 61.04-0.06L61.04-0.06Q60.74 0.35 60.33-0.06L60.33-0.06Q58.38-2.17 55.51-3.09L55.51-3.09Q55.20-3.13 55.18-3.36L55.18-3.36Q55.18-3.61 55.39-3.71L55.39-3.71Q56.68-4.53 56.68-5.96L56.68-5.96L56.66-16.45Q56.66-16.95 56.17-16.95L56.17-16.95Q55.25-16.88 54.88-16.41L54.88-16.41Q53.83-15.20 53.18-13.89L53.18-13.89Q52.95-13.48 52.48-13.89L52.48-13.89Q50.47-15.31 48.07-18.91L48.07-18.91Q47.87-19.32 47.36-19.02L47.36-19.02Q46.07-18.26 45.72-15.39Q45.37-12.52 45.88-10.12L45.88-10.12Q46.80-5.61 49.06-4.34Q51.33-3.07 53.59-3.95L53.59-3.95Q54.04-4.16 54.17-3.83Q54.30-3.50 53.87-3.36L53.87-3.36Q52.36-2.73 50.93-1.89Q49.49-1.05 48.36-0.14L48.36-0.14Q47.70 0.27 47.50-0.31L47.50-0.31Q47.46-0.78 47.00-1.02Q46.54-1.25 46.23-1.48L46.23-1.48Q43.98-3.01 43.06-5.21Q42.13-7.40 42.01-9.86L42.01-9.86Q41.78-15.43 45.02-18.34L45.02-18.34Q46.17-19.38 47.68-20.03Q49.18-20.68 50.76-21.09L50.76-21.09Q51.19-21.17 51.50-20.59L51.50-20.59Q53.81-16.89 55.08-17.85L55.08-17.85Q55.92-18.40 56.30-19.02Q56.68-19.65 56.56-21.09L56.56-21.09Q56.35-22.97 55.79-24.16Q55.23-25.35 54.38-26.23L54.38-26.23Q54.10-26.50 54.43-26.78L54.43-26.78Q54.73-26.95 54.96-26.66L54.96-26.66Q55.41-26.11 55.89-25.49Q56.37-24.86 56.70-24.20L56.70-24.20Q56.80-24.00 56.97-24.00L56.97-24.00Q57.17-24.00 57.27-24.16L57.27-24.16Q58.44-26.11 60.48-27.31Q62.52-28.52 64.90-28.44L64.90-28.44Q65.21-28.44 65.29-28.18L65.29-28.18Q65.39-27.70 64.90-27.70L64.90-27.70Q62.97-27.70 61.81-26.58Q60.64-25.47 60.64-22.52L60.64-22.52L60.64-22.30Q60.64-22.05 60.90-21.99L60.90-21.99Q61.13-21.91 61.27-22.17L61.27-22.17Q62.46-24.77 64.88-25.45L64.88-25.45Q64.98-25.49 65.16-25.41L65.16-25.41Q65.29-25.29 65.29-25.14L65.29-25.14L65.29-21.68Q65.29-21.52 65.18-21.45L65.18-21.45Q65.12-21.37 64.94-21.37L64.94-21.37Q62.81-21.64 61.25-20.14L61.25-20.14Q60.96-19.73 61.00-19.30Q61.04-18.87 61.50-18.87L61.50-18.87L64.86-18.87Q65.18-18.87 65.18-18.55L65.18-18.55L65.18-17.30Q65.18-16.97 64.86-16.97L64.86-16.97L61.23-16.97Q60.96-16.97 60.80-16.80Q60.64-16.62 60.64-16.33Z M72.89 0.55L72.89 0.55Q72.85 0.08 72.39-0.16Q71.93-0.39 71.62-0.63L71.62-0.63Q69.38-2.15 68.45-4.35Q67.52-6.54 67.40-9.00L67.40-9.00Q67.17-14.57 70.41-17.48L70.41-17.48Q71.56-18.52 73.07-19.17Q74.57-19.82 76.15-20.23L76.15-20.23Q76.64-20.33 76.88-19.75L76.88-19.75L79.69-13.14Q79.88-12.62 79.55-12.48L79.55-12.48L79.51-12.48L71.50-9.38Q71.27-9.26 71.31-9.00L71.31-9.00Q72.27-4.67 74.51-3.45Q76.76-2.23 78.98-3.09L78.98-3.09Q79.38-3.26 79.48-3.03Q79.59-2.79 79.34-2.68L79.34-2.68Q77.75-1.88 76.32-1.04Q74.88-0.20 73.75 0.72L73.75 0.72Q73.57 0.84 73.23 0.80Q72.89 0.76 72.89 0.55ZM71.07-10.49L71.07-10.49Q71.09-10.33 71.21-10.24Q71.33-10.16 71.50-10.23L71.50-10.23L75.66-11.80Q75.96-11.91 75.84-12.21L75.84-12.21L73.46-18.05Q73.28-18.48 72.75-18.16L72.75-18.16Q71.62-17.50 71.21-15.14Q70.80-12.77 71.07-10.49Z M88.20-15.92L88.20-15.92L88.18-4.98Q88.18-4.38 88.48-4.18L88.48-4.18L89.88-3.38Q90.29-3.03 91.25-4.32L91.25-4.32Q91.43-4.57 91.73-4.39Q92.03-4.22 91.76-3.93L91.76-3.93Q89.67-1.64 88.61 0.57L88.61 0.57Q88.28 0.98 87.89 0.57L87.89 0.57Q86.80-0.72 85.86-1.37Q84.92-2.01 83.07-2.46L83.07-2.46Q82.75-2.52 82.73-2.75Q82.71-2.99 82.97-3.09L82.97-3.09Q84.28-3.40 84.26-5.33L84.26-5.33L84.24-15.90Q84.26-16.25 83.95-16.25L83.95-16.25L81.64-16.25Q81.37-16.25 81.29-16.46L81.29-16.46Q81.21-16.68 81.46-16.84L81.46-16.84Q83.81-18.50 86.24-20.84Q88.67-23.18 90.66-25.29L90.66-25.29Q90.92-25.57 91.16-25.40Q91.41-25.23 91.17-24.92L91.17-24.92Q90.27-23.81 89.37-22.03Q88.46-20.25 88.26-18.79L88.26-18.79Q88.22-18.59 88.28-18.50L88.28-18.50Q88.40-18.38 88.55-18.38L88.55-18.38L91.93-18.38Q92.07-18.38 92.17-18.28L92.17-18.28Q92.27-18.14 92.27-18.03L92.27-18.03L92.19-16.56Q92.15-16.25 91.86-16.25L91.86-16.25L88.48-16.25Q88.20-16.25 88.20-15.92Z M45.21 9.54L45.21 9.54Q46.38 11.18 47.86 12.54Q49.35 13.90 50.99 15.13L50.99 15.13Q51.14 15.21 51.22 15.29L51.22 15.29Q51.42 15.66 51.10 15.87L51.10 15.87L46.42 19.13Q45.81 19.62 46.59 19.70L46.59 19.70Q49.35 19.80 50.99 22.79Q52.63 25.77 52.47 28.14L52.47 28.14Q52.16 32.36 48.46 35.42Q44.76 38.49 39.84 38.74L39.84 38.74Q33.51 39.09 28.86 34.87Q24.21 30.64 24.03 24.54L24.03 24.54Q23.88 18.02 27.25 13.70Q30.62 9.39 35.03 9.39L35.03 9.39Q38.53 9.39 39.93 12.39L39.93 12.39Q40.09 12.73 40.42 12.51L40.42 12.51L44.62 9.43Q44.95 9.21 45.21 9.54ZM42.22 22.38L42.22 22.38Q41.69 22.39 41.07 22.53L41.07 22.53Q40.62 22.61 40.50 22.31Q40.38 22.00 40.77 21.77L40.77 21.77L46.40 17.86Q46.73 17.63 46.42 17.36L46.42 17.36Q43.45 15.07 41.63 12.80L41.63 12.80Q41.46 12.57 41.20 12.75L41.20 12.75L38.98 14.37Q36.87 15.93 37.01 17.84Q37.16 19.76 39.68 22.49L39.68 22.49Q43.90 27.14 42.29 29.54Q40.67 31.95 37.04 33.88L37.04 33.88Q36.59 34.09 36.39 33.81Q36.18 33.53 36.55 33.20L36.55 33.20Q37.41 32.38 38.39 31.24Q39.37 30.11 35.87 25.83L35.87 25.83Q33.39 22.80 32.88 20.98Q32.37 19.15 33.07 17.93Q33.76 16.71 35.28 15.81Q36.81 14.91 38.41 13.74L38.41 13.74L39.17 13.18Q39.37 13.04 39.29 12.80L39.29 12.80Q38.43 10.27 35.30 10.32L35.30 10.32Q32.51 10.40 30.74 13.62Q28.98 16.83 29.09 20.93L29.09 20.93Q29.33 28.63 32.65 33.01Q35.97 37.39 40.97 37.39L40.97 37.39Q44.37 37.39 46.19 34.85Q48.02 32.30 47.98 29.35L47.98 29.35Q47.94 26.91 46.43 24.64Q44.91 22.38 42.22 22.38Z M61.20 38.35L61.20 38.35Q60.91 38.84 60.48 38.35L60.48 38.35Q58.33 35.68 53.96 34.33L53.96 34.33Q53.60 34.23 53.61 34.02Q53.62 33.80 53.84 33.70L53.84 33.70Q55.09 33.27 55.09 31.11L55.09 31.11L55.03 21.14Q55.03 20.93 54.99 20.80Q54.95 20.68 55.02 20.57Q55.09 20.46 55.28 20.44L55.28 20.44Q60.48 20.01 64.52 17.61L64.52 17.61Q64.70 17.51 64.84 17.55Q64.99 17.59 65.01 17.82L65.01 17.82Q65.34 19.93 67.08 21.96L67.08 21.96Q68.04 23.14 68.67 25.17Q69.31 27.20 69.17 28.55L69.17 28.55Q68.98 30.13 68.14 31.39Q67.30 32.65 66.22 33.70L66.22 33.70Q64.95 34.95 63.49 35.81Q62.02 36.67 61.20 38.35ZM59.07 20.89L59.07 20.89L59.15 32.14Q59.15 32.43 59.39 32.55L59.39 32.55L62.84 34.70Q63.35 35.03 63.78 34.50L63.78 34.50Q65.64 32.51 65.46 29.72L65.46 29.72Q65.42 27.98 64.79 26.61Q64.15 25.25 63.21 24.19L63.21 24.19Q61.69 22.65 60.89 20.36L60.89 20.36Q60.85 20.27 60.71 20.20Q60.58 20.13 60.46 20.19L60.46 20.19Q59.87 20.40 59.29 20.56L59.29 20.56Q59.07 20.64 59.07 20.89Z"/></g>
</svg>
</g><g opacity="1" transform="rotate(0 522.8233 444.0185)">
<svg width="67.6223" height="7" x="522.8233" y="444.0185" version="1.1" preserveAspectRatio="none" viewBox="1.88 -31.84 312.72 32.36">
  <g transform="matrix(1 0 0 1 0 0)" class="text"><path id="id-D-YM9nyY415" d="M12.16 0.52C18.28 0.52 22.12-3.16 22.12-7.80C22.12-12.16 19.48-14.16 16.08-15.64L11.88-17.44C9.60-18.40 7.04-19.48 7.04-22.32C7.04-24.96 9.20-26.64 12.52-26.64C15.24-26.64 17.40-25.56 19.20-23.88L21.16-26.24C19.08-28.40 16-29.88 12.52-29.88C7.20-29.88 3.28-26.60 3.28-22.08C3.28-17.80 6.52-15.72 9.24-14.56L13.48-12.72C16.24-11.48 18.36-10.52 18.36-7.52C18.36-4.64 16.04-2.72 12.20-2.72C9.16-2.72 6.20-4.16 4.08-6.36L1.88-3.84C4.44-1.16 8 0.52 12.16 0.52Z M37.52 0.52C40.48 0.52 42.80-0.48 44.72-1.72L43.40-4.12C41.80-3.04 40.08-2.40 37.96-2.40C33.84-2.40 31-5.36 30.76-10L45.40-10C45.48-10.52 45.56-11.28 45.56-12.08C45.56-18.28 42.44-22.28 36.92-22.28C31.88-22.28 27.12-17.88 27.12-10.84C27.12-3.68 31.76 0.52 37.52 0.52ZM30.72-12.60C31.16-16.88 33.88-19.36 36.96-19.36C40.36-19.36 42.36-17 42.36-12.60Z M56.48 0.52C59.16 0.52 61.60-0.88 63.68-2.60L63.80-2.60L64.12 0L67.12 0L67.12-13.36C67.12-18.72 64.88-22.28 59.60-22.28C56.12-22.28 53.04-20.72 51.04-19.44L52.48-16.92C54.20-18.08 56.48-19.24 59-19.24C62.56-19.24 63.48-16.56 63.48-13.76C54.24-12.72 50.12-10.36 50.12-5.64C50.12-1.72 52.84 0.52 56.48 0.52ZM57.52-2.40C55.36-2.40 53.68-3.40 53.68-5.88C53.68-8.68 56.16-10.48 63.48-11.36L63.48-5.28C61.36-3.40 59.64-2.40 57.52-2.40Z M75.24 0L78.88 0L78.88-15.76C80.88-18 82.72-19.08 84.36-19.08C87.12-19.08 88.40-17.36 88.40-13.28L88.40 0L92.04 0L92.04-15.76C94.08-18 95.84-19.08 97.52-19.08C100.28-19.08 101.56-17.36 101.56-13.28L101.56 0L105.20 0L105.20-13.76C105.20-19.32 103.08-22.28 98.60-22.28C95.96-22.28 93.68-20.56 91.44-18.12C90.56-20.68 88.76-22.28 85.44-22.28C82.84-22.28 80.56-20.64 78.68-18.56L78.56-18.56L78.24-21.72L75.24-21.72Z M117.32 0.52C118.28 0.52 118.92 0.40 119.44 0.20L118.92-2.60C118.52-2.52 118.36-2.52 118.16-2.52C117.60-2.52 117.12-2.96 117.12-4.08L117.12-31.84L113.48-31.84L113.48-4.32C113.48-1.24 114.60 0.52 117.32 0.52Z M134.84 0.52C137.80 0.52 140.12-0.48 142.04-1.72L140.72-4.12C139.12-3.04 137.40-2.40 135.28-2.40C131.16-2.40 128.32-5.36 128.08-10L142.72-10C142.80-10.52 142.88-11.28 142.88-12.08C142.88-18.28 139.76-22.28 134.24-22.28C129.20-22.28 124.44-17.88 124.44-10.84C124.44-3.68 129.08 0.52 134.84 0.52ZM128.04-12.60C128.48-16.88 131.20-19.36 134.28-19.36C137.68-19.36 139.68-17 139.68-12.60Z M155.12 0.52C160.24 0.52 163.04-2.40 163.04-5.92C163.04-10.04 159.56-11.32 156.40-12.52C153.96-13.44 151.60-14.20 151.60-16.28C151.60-17.96 152.84-19.40 155.56-19.40C157.52-19.40 159.04-18.60 160.56-17.48L162.32-19.84C160.60-21.16 158.24-22.28 155.56-22.28C150.84-22.28 148.08-19.56 148.08-16.12C148.08-12.44 151.52-10.96 154.56-9.84C156.96-8.92 159.52-7.92 159.52-5.72C159.52-3.84 158.12-2.32 155.24-2.32C152.64-2.32 150.68-3.36 148.80-4.88L147-2.48C149.08-0.76 152.04 0.52 155.12 0.52Z M175.04 0.52C180.16 0.52 182.96-2.40 182.96-5.92C182.96-10.04 179.48-11.32 176.32-12.52C173.88-13.44 171.52-14.20 171.52-16.28C171.52-17.96 172.76-19.40 175.48-19.40C177.44-19.40 178.96-18.60 180.48-17.48L182.24-19.84C180.52-21.16 178.16-22.28 175.48-22.28C170.76-22.28 168.00-19.56 168.00-16.12C168.00-12.44 171.44-10.96 174.48-9.84C176.88-8.92 179.44-7.92 179.44-5.72C179.44-3.84 178.04-2.32 175.16-2.32C172.56-2.32 170.60-3.36 168.72-4.88L166.92-2.48C169.00-0.76 171.96 0.52 175.04 0.52Z M205.88 0L209.60 0L209.60-26.20L218.48-26.20L218.48-29.32L197.00-29.32L197.00-26.20L205.88-26.20Z M224.60 0L228.24 0L228.24-21.72L224.60-21.72ZM226.44-26.20C227.88-26.20 228.96-27.20 228.96-28.56C228.96-30.04 227.88-30.92 226.44-30.92C225.00-30.92 223.92-30.04 223.92-28.56C223.92-27.20 225.00-26.20 226.44-26.20Z M245.36 0.52C247.96 0.52 250.44-0.48 252.36-2.24L250.80-4.68C249.44-3.44 247.68-2.52 245.68-2.52C241.68-2.52 238.96-5.84 238.96-10.84C238.96-15.84 241.84-19.24 245.76-19.24C247.52-19.24 248.84-18.44 250.12-17.28L252.00-19.72C250.44-21.08 248.48-22.28 245.64-22.28C240.08-22.28 235.16-18.08 235.16-10.84C235.16-3.64 239.60 0.52 245.36 0.52Z M258.36 0L261.96 0L261.96-5.72L266.04-10.48L272.40 0L276.36 0L268.12-13L275.40-21.72L271.36-21.72L262.04-10.24L261.96-10.24L261.96-31.84L258.36-31.84Z M289.60 0.52C292.56 0.52 294.88-0.48 296.80-1.72L295.48-4.12C293.88-3.04 292.16-2.40 290.04-2.40C285.92-2.40 283.08-5.36 282.84-10L297.48-10C297.56-10.52 297.64-11.28 297.64-12.08C297.64-18.28 294.52-22.28 289.00-22.28C283.96-22.28 279.20-17.88 279.20-10.84C279.20-3.68 283.84 0.52 289.60 0.52ZM282.80-12.60C283.24-16.88 285.96-19.36 289.04-19.36C292.44-19.36 294.44-17 294.44-12.60Z M310.60 0.52C311.92 0.52 313.36 0.12 314.60-0.28L313.88-3C313.16-2.72 312.16-2.44 311.40-2.44C308.88-2.44 308.04-3.96 308.04-6.64L308.04-18.76L313.92-18.76L313.92-21.72L308.04-21.72L308.04-27.80L305.00-27.80L304.56-21.72L301.16-21.52L301.16-18.76L304.40-18.76L304.40-6.72C304.40-2.36 305.96 0.52 310.60 0.52Z"/></g>
</svg>
</g></svg></svg>