<svg version="1.1" preserveAspectRatio="none" xmlns="http://www.w3.org/2000/svg" width="500" height="500" viewBox="0 0 500 500"><rect width="100%" height="100%" fill="#232128" fill-opacity="1"/><svg viewBox="-6.9492 221.8338 547.8193 184" width="333" height="111.84709994700808" x="83.5px" y="194.0765px" xmlns="http://www.w3.org/2000/svg" xmlns:xlink="http://www.w3.org/1999/xlink" preserveAspectRatio="none"><defs></defs><style>.companyName {fill:#A5AEAD;fill-opacity:1;}.icon1 {fill:#A4747F;fill-opacity:1;}.icon2 {fill:#8CA6A2;fill-opacity:1;}.icon3 {fill:#5E718C;fill-opacity:1;}.icon3-str {stroke:#5E718C;stroke-opacity:1;}.text {fill:#A5AEAD;fill-opacity:1;}</style><g opacity="1" transform="rotate(0 -6.9492 221.8338)">
<svg width="163.8216" height="184" x="-6.9492" y="221.8338" version="1.1" preserveAspectRatio="none" viewBox="28.934310913085938 21.399999618530273 143.16574096679688 160.80001831054688">
  <g transform="matrix(1 0 0 1 0 0)"><g><path d="M83.1 75.4c.5.1.3-.1-1.1-.6-.4-.1-.7-.1-1.1-.2.7.3 1.4.5 2.2.8z" data-color="1" class="icon1"></path><path d="M78.6 69.7c1.7.2 3.7.4 2.7 0-.9 0-1.4-.1-2-.2l-1-.1h-1v.2c-.2.7-.1 1.4.2 2 .2.4.3.6.2.5.3.4.7.7 1.1 1.1.2.2.5.4.8.5.2.1.5.2.7.3-.9-.6-1.8-1.3-2.5-2.1-.4-.5-.6-1.2-.5-1.8 0-.2 0-.3.1-.5v-.1h.3c.3 0 .7.1 1 .1.5.1 0 .1-.1.1z" data-color="1" class="icon1"></path><path d="M91.4 55.5l.3.9c-.1-.4-.2-.6-.3-.9z" data-color="1" class="icon1"></path><path d="M97.8 33.6c0-.3-.1-.7-.2-1 0 .4.1.7.2 1z" data-color="1" class="icon1"></path><path d="M99.7 48.8l-.1-.9c0 .3 0 .6.1.9z" data-color="1" class="icon1"></path><path d="M91.4 55.5l-.8-2.3c.2.8.4 1.5.8 2.3z" data-color="1" class="icon1"></path><path d="M78.9 67.6c.4.3.8.5 1.2.7-.4-.2-.8-.4-1.2-.7 0 .1 0 .1 0 0z" data-color="1" class="icon1"></path><path d="M81.5 48.4c0 .1.1.2.1.3l.2.3c.1.2.3.3.4.4-.1-.2-.3-.4-.4-.5l-.2-.2-.1-.3z" data-color="1" class="icon1"></path><path d="M85 58.5c.2.3.6.6.9.8-.4-.3-.7-.7-1-1.1-.1 0 0 .1.1.3z" data-color="1" class="icon1"></path><path d="M76.8 61.4c-.1.3-.1.5-.1.8v-.4l.1-.4z" data-color="1" class="icon1"></path><path d="M90.4 57.7c0 .1 0 .2.1.3 0 0 0-.1-.1-.3z" data-color="1" class="icon1"></path><path d="M76.1 140.3c0-.2 0-.3 0 0z" data-color="1" class="icon1"></path><path d="M83.6 128.3l-.5.2c0 .1-.1.1-.1.1l.6-.3z" data-color="1" class="icon1"></path><path d="M102.7 48.4v.1c.1.8.1.4 0-.1z" data-color="1" class="icon1"></path><path d="M123.3 108.9c1.4-.4.3 0-.6.5-.3.1-.6.3-.9.5 0 .1.3 0 1.3-.4-.4 0 3.7-1.8.2-.6z" data-color="1" class="icon1"></path><path d="M78.2 67.1c-.3-.3-.6-.6-.9-1 .3.4.6.7.9 1z" data-color="1" class="icon1"></path><path d="M109 62c0 .2-.1.4-.1.7 0-.2.1-.4.1-.7z" data-color="1" class="icon1"></path><path d="M101.4 32.1c0-.4.1-.7.2-1.1-.1.4-.2.7-.2 1.1z" data-color="1" class="icon1"></path><path d="M108.9 37.1c0-.6.1-.9.1-1.7v.3c0 .4-.1.9-.1 1.4z" data-color="1" class="icon1"></path><path d="M114.2 31.2l.1-.5v-.8l-.1 1.3z" data-color="1" class="icon1"></path><path d="M81.7 153.2c.3-.4.6-.7.8-.9-.4.3 1.6-3-.8.9z" data-color="1" class="icon1"></path><path d="M78.9 67.5c-.3-.1-.5-.3-.7-.5.2.2.5.4.7.6.1.1.2.1 0-.1z" data-color="1" class="icon1"></path><path d="M107.4 36c0-1.4.1-2.8.1-4.1 0 1.4-.1 2.8-.1 4.1z" data-color="1" class="icon1"></path><path d="M101.3 166.2v-.9.9z" data-color="1" class="icon1"></path><path d="M116.5 21.5c.1 0 .2 0 .3-.1l-.4 2-.3 1.7v.5l.2-1.7c.1-.8.3-1.6.4-2.5-.1 0-.1 0-.2.1z" data-color="1" class="icon1"></path><path d="M87.3 145.2c2.4-3.1.9-1.6 1.3-2.4 2.8-3.8 1.5-1.6 2.5-2.8.6-.8 1.1-1.6 1.6-2.3l-1.5-1c-.7 1.5-1.4 2.8-2.1 4-.1.1-.3.5-.1 0-1.4 2.8-4.5 8-6.2 11.2-.1.1-.2.3-.3.4.4-.4.6-.4.6-.3-.5.8-.9 1.4-1.2 2-.1.1-.2.3-.2.5-.1.2-.1.3-.1.4 0 .3-.1.5-.1.7 0-.2 0-.5.1-.7l.1-.4c.1-.2.1-.4.2-.7-.4.6-.5 1.3-.4 2 0 .5 0 .5-.1.4-.1-.4-.1-.7-.1-1.1 0-.3.1-.5.2-.7l.3-.6c.2-.3.3-.5.3-.6-.1.2-.2.4-.4.6-.1.2-.3.5-.3.8-.2.5-.2 1.1-.1 1.7.3 1 .8 1.9 1.5 2.6.1.1.2.2.2.3l.3.3c.2.2.5.4.7.6l.3.3.2.1s.1.1.1 0l.1-.1.4-.7.6-1.3.5-1c.1-.1 0 .2-.2.7l-.4.8c-.2.4-.4.9-.6 1.2l-.3.5v.1h-.1l-.1-.1-.2-.1c-.2-.2-.4-.3-.5-.4-.1 0 0 0 .1.2l.4.4.3.3.1-.1.1-.2-.2.3c-.1-.1-.2-.2-.3-.2l-.6-.5-.6-.6-.5-.5c-.5-.6-.9-1.3-1.2-2 .3.9.5 1.1.4 1.1-.2-.2-.3-.4-.4-.7l-.2-.5c-.1-.2-.1-.3-.1-.3 0-.1-.1.2.2 1 .3.6.7 1.2 1.2 1.8l.2.2.3.3c.2.2.4.3.5.5.4.3.7.5 1 .8l.1.1h.1l.1-.3.3-.5c.2-.3.4-.7.5-1l.6-1.3c.9-1.8 1.7-3.6 2.6-5.3.5-1.2-.4.3.1-.9 3.4-7.2 3.3-5.3 5.7-10.7.3-.8.5-1.4.9-2.5l-1-.5c-.2.8-.6 1.8-1.3 3.4l.3-1.4c-2 5.1-.8 3-2.9 8.3.3-1 1.4-4 1.1-3.3-1.5 3.4-.8 2.5-1.8 5.2l-.4.5-1.5 4.2c-.2.7-.5 1.5-.7 2.2l-.3 1.1-.3 1.2c0 .2-.1.4-.1.6l-.1.6c0 .4-.1.9 0 1.3.1 2 1.2 3.9 2.8 5.1.3.2.5.3.8.5.5.2 1.2.8 1.2-.1l-.1.5v.1h-.4c-.1 0-.1 0 .1.1.1.1.2.1.4.2l.3-.6c.2-.4.3-.8.4-1.2l.2-.9.4-1.5.8-3 1.7-6.2 3.4-11.9.6-2.9-1.5-.3c-.1.7-.3 1.2-.2.5-.7 3 .1.2-.1 1.6-.3 1.7-.5 2.2-.4 1.1-.9 5.3-2.5 15.1-3.4 20.7l.1-1.1-.3 2.7v1.1c0 .3.1.7.2 1 .2.7.4 1.3.7 1.9.4.8.8 1.5 1.4 2.3-.2-.2-.4-.4-.5-.6l1.2 1.5c.2.2.5.5.9.8.3.3.7.6 1 .8l.5.4.1.1h.1v-.1l.1-.3c.1-.4.2-.8.2-1.3l.3-2.3.9-7.2c.6-4.7 1.2-9.1 1.8-12.7-.1-1.4 1.3-9.4 1-10v-.1l-1-.1c-.3 5.4-.3 3.9-.7 11.5-.1 2 .2 3.1.1 5.6l-.2.1.1 3.4-.3 1.8-.1 2.4c0-.6.1-1.3.2-1.9 0 2-.2 3.9-.4 5.9l-.1.6v1.8c0 .6.1 1 .1 1.1.2.8.6 1.6 1.1 2.3.5.7 1.1 1.2 1.8 1.7.3.2.7.4 1 .6.2.1.4.2.5.3l.3.1c.1.1.3.1.4.2.5.2 1.1.4 1.7.5h.2c.1 0 .2.1.1 0v-.4c0-.3.1-.5.1-.9v1.4h-.3c-.4-.1-.9-.2-1.4-.3l-.8-.3c-.1-.1-.2-.1-.3-.1l-.2-.1.5.2.6.2c.3.1.6.2 1 .3l.7.2h.2v-.3c0-.3.1-.5.2-.8.1-1 .2-2 .1-3-.1.6-.1-.3-.2-.4.2-2.1.3-7 .4-10.6l.1.7c.2-6.5.3-13.7.5-21.1-.1 2.6-.4 2-.3-.1l.2-.9c-.1-1.4-.1 2.2-.2-.6 0-.5 0-1.1.1-1.6h-1.2c0 .2-.1.2-.1 0h1.4c.1.4.1.9.1 1.4v-1.4h-1.7l.1 2c-.1.2-.1-.6-.2-.8.2 1.4-.1 5.7.2 7.7l-.1.2c.1 7.3.3 10.6.5 16.6.2 1.4.4 2.8.5 4.2l.1 1.6.1.8.1.9c.2 1.2.7 2.4 1.4 3.4.7 1.1 1.6 2 2.6 2.8.3.2.5.4.8.6.1.1.3.2.4.3l.3.2c.1.1.2.1.4.2.5.2.9.4 1.4.6l.7.2c.2.1.4.2.7.2 0-.3-.1-.6-.1-.9l-.3-1.9-.1-.5v-.3c-.1-.3-.1-.4-.1-.4s-.1.2-.2-.6c.1-.3-.3-5.5 0-2.8-.2-2.4-.3-4.9-.3-7.3 0-2.2.1-4.7.3-8.7-.1.9-.2 1.8-.2 1.3 0-1 .1-2.1.3-3.1v.4c.1-4.5.5-9.7.8-14.6.3-4.4.2-8.9-.2-13.3v.4c-.1-1.2-.3-2.5-.4-3.7-.2-1.3-.5-2.5-.7-3.7-.7-3.4.6 2 .1-.5l-1.9-7.8v-.2h1c.4 0 .8-.1 1.2-.2.8-.1 1.5-.3 2.2-.6.7-.2 1.5-.5 2.2-.8.7-.3 1.5-.7 2.2-1 3.7-1.2 7.5-2.1 11.3-2.6 2.3-.4 4.6-.5 6.9-.5.5 0 1.1 0 1.6.1.2 0 .6.1.8.1h.8c1 0 2 0 3-.2l-.4-.1c1.8-.4 2.2-.3 3.5-.6-.2 0-2 .3-.9 0 1-.2 1.9-.5 2.8-.8.7-.2 1.4-.5 2.1-.9.2-.1.5-.3.7-.5.2-.2.3-.4.3-.6 0-.1 0-.2-.1-.3l-.1-.1c-.1 0-.1-.1-.2-.1l-.1-.1-.2-.1c-.2-.1-.3-.2-.5-.2l-.7-.2-.4-.1c-.1 0-.1-.1-.2-.1l-.4-.2c-.1-.1-.2-.1-.3-.2l-.3-.2-.6-.4-1.2-.8c-3.3-2.3-7-4-10.8-5-1-.2-2-.4-3.1-.4-1 0-2.1 0-3.1.1-2 .2-3.9.5-5.8.6-1.9.1-3.8.1-5.8 0-1.9-.1-3.8-.3-5.6-.7-.9-.2-1.7-.5-2.5-.8-.3-.1-.6-.3-.8-.5 0 0 0-.1-.1-.1v-.2c.1-.3.2-.6.3-1.1.3-.8.6-2 1.2-3.7l-.4 2c.8-2.8 1.5-5.6 2.1-8.5.3-1.5.5-3 .5-4.4v-4.4c-.1-5.8-.2-11.6-.5-17.2.1.6.2 1.2.2 1.8 0-1.2 0-3.4-.1-5.3 0-1.2-.1-2.3-.3-3.5 0-1.7.1-.4.1-1.5 0-2.4-.4-5.9-.3-7.2.1.4.1.7.1 1.1-.1-1.5-.3-7.2-.4-5.7-.1-3.7.1-7.5.5-11.2v-.6l.1-.9c.1-.6.2-1.3.3-2-.2 0-.4.1-.6.2l-.6.2c-.5.2-.9.4-1.3.6-.2.1-.5.2-.7.4-.1.1-.3.2-.4.2-.3.2-.5.3-.7.5-.7.4-1.2 1-1.6 1.6 0-.1-.4.2-.9.8-.7.8-1.1 1.7-1.5 2.7-.1.3-.2.6-.2.9 0 .3-.1.6-.1.9-.1.6-.1 1.2-.1 1.7v2.7c-.1-.9-.1 2.3-.3 1.3-.1 3 0 5.8.1 5.3-.4 5.6.2 11.2-.3 14.3l.1 7h1.6l-1-18.4c.3.3.4 8.9.7 8.6-.4-7.7-.9-12.1-1.1-19.7 0-2 .2 1.1.3 1.8l-.3-5.6-.1-2.8v-1.1l-.1-1v-.1h-.1l-.3.1-.5.1c-.4.1-.7.2-1 .3-.2.1-.4.1-.5.2l-.3.2-.6.3c-.4.2-.8.5-1.2.8-.8.6-1.4 1.4-1.8 2.3-.4.9-.6 1.8-.7 2.8 0 .5 0 .9.1 1.4.1.4.1.8.1 1.3-.1-.5-.2-.9-.2-1.4 0 1 .1 2 .3 2.9l-.1-1.3c0-1.1.2.2.4 1.9.2 1.6.4 3.5.5 3.7-.5-2.3.3 6.7-.4 3.1.1.9.2 2 .3 1.8 0 1.3 0 1.7-.2.4.3 4.8.4 3.1.6 7.4-.1 0-.1-.9-.2-1.3.2 2.2.4 4.4.5 8.1 0-.2-.1.2-.1-.9l.2 3.6 1.1-.1c-.7-4.5-1.5-8.4-2.2-13.9.6 2-.2-2.4 0-2.8l-.6-3.7.1 1.5c-.5-3.2-1.1-6.1-1.4-8.9l.4 2.4-1-6.4.4 3.7c-.3-1.6-.4-1.5-.4-1.6 0 0-.1-.1-.1-.4 0-.2-.1-.4-.1-.7l-.2-1.4v-.2l-.1-.6c0-.1-.1 0-.1 0l-.2.1-.5-.2c-.2.2-.5.4-.8.6-.1.1-.3.2-.4.4l-.3.3c-.4.5-.8.9-1.1 1.2-.5.7-.8 1.5-1.1 2.4-.3 1-.4 2.1-.4 3.2 0 .6-.3-.5-.3-.1.2.8.4 2.7.8 4.6.3 1.9.7 3.9 1 4.9-.2-.7-.3-.7-.3-.4l.4 1.3c.2 1.5.2 1.7.1 1.5.8 4.5 0-1.5.9 3.9-.1-.4-.1-.2-.3-1.1.7 3.7 1.5 7.2 2.2 10.6l.6-.1c-.4-1.5-.9-3-1.3-4.5-.2-1.5 1.3 4.2 1 2.5-2-6.9-4.4-14.2-6.3-20.9l.3 1.3c-.5-1-.8-2.1-1-3.2-.1-.4-.2-.9-.3-1.3-.1-.3-.1-.6-.2-.8l-.1-.4v-.1l-.2.1c-.5.2-1 .5-1.5.9-.4.3-.7.6-1 1 .6-.7.7-1 .5-.8-1 .9-1.7 2.1-1.9 3.4-.3 1.4-.1 2.8.3 4.1.9 2.6 2 5.5 3.4 8.8l-.4-.8c.9 2.7 2.6 6.9 3.7 9.8.4.8 1.1 2.4.8 1.4l.5 1.4.6-.3c-1.9-4-3.9-7.7-5.9-11.3-1-1.8-2-3.6-2.9-5.3-.5-.9-.9-1.8-1.4-2.7l-.8-1.6-.2-.4-.1-.5c-.1 0-.1.1-.2.1-.2.2-.5.4-.7.6.2-.2.5-.5.8-.7l.1-.1h.1v.1l.1.2.2.3c.3.4.4.6.1.1l-.3-.6c-.1-.1-.1-.2-.2-.2l-.2.2c-.3.3-.6.5-.9.8l-.4.4c-.1.1-.2.2-.3.4-.2.2-.4.5-.6.8-.4.5-.6 1.1-.7 1.8-.1.7 0 1.4.3 2 0-.2-.1-.3-.1-.5s-.1-.3-.1-.5c-.1-.6.1-1.1.3-1.6-.2.7-.2 1.4 0 2 0 .1.1.2.1.3l.2.3c.1.2.2.4.4.6.3.4.5.7.7 1.1-1.8-2.6-.2.1.5 1.4-.1-.2.2.2.2 0 1.7 3.3.6.4 3 4.8l-.2-.2c1 1.6 2 3 3 4.8.3.8-1.1-1.7-1.3-1.7 1.3 2.1 2.7 4.1 3.8 6.1l.1-.1c-.2-.3-.4-.5-.6-.8l.6.8-.2.2c-.5-.9-1.2-1.9-1.7-2.7.7 1.4 1.1 2.2 1.5 2.8l.7-.4-1.3-1.7.1.2-2.9-3.9.7 1c-2.6-2.5-4.5-5.7-7.8-9.3 3.1 3.5.6.5 1 .7l-.6-.8c-.3-.4-.6-.8-.8-1.1l-.2-.6-.1-.2-.1.1c-.1.1-.1.1 0-.1-.3.3-.5.6-.7 1-.2.3-.4.6-.6 1-.3.5-.5 1-.6 1.6-.2.6-.2 1.3-.1 2 .2.8.6 1.5 1.1 2.1 0 .2 1.5 2 1.1 1.7 2 2.3-.4-.6-.1-.5 2.6 2.8 5.7 6.5 9.4 10.1l.7-.8c-1-.7-1.9-1.3-2.9-2-1.7-1.2-3.4-2.3-5.1-3.4l-2.1-1.4-1.3-.8-.7-.5-.5-.3h-.1l-.1.1c0 .1-.1.1-.1.2-.2.3-.3.5-.3.4 0-.2.1-.4.3-.6 0-.1.1-.1.1-.2s.1-.2.2-.1l.4.2c.3.2.5.3.5.3-.3-.3-.6-.5-1-.7-.3.3-.5.6-.7 1-.1.2-.2.4-.2.5-.1.2-.1.3-.1.5-.1.3-.1.7-.1 1 0 .7.2 1.3.5 1.9.3.6.7 1.1 1.2 1.6-.4-.4-.1.1.5.8.5.4 1 .8 1.6 1.1.4.2.9.5 2.2 1.1-.7-.2-1.4-.5-2.1-.8 2.3 1.2 4.7 2.2 7.2 3 .6.4-1.6-.4-2.5-.7 1 .4 2.2.8 3.4 1.2l.2-.9c-2.2-.4-4.4-.7-5-.7l1.9.4c-1.1-.2-.5-.3.3-.1 1 .1 1.9.3 2.9.5l-.2.7c-.3-.1-.6-.3-.8-.4l.9.3.1-.4-1-.2.9.3v.1c-1.1-.5-2.8-1.1-4.5-1.8-1.7-.6-3.4-1.5-4.9-2.6.5.3 1 .5 1.5.7-.6-.3-1.1-.6-1.7-1l-.4-.3-.3-.4-.7-.7c-.2-.2-.3-.5-.3-.7.1 0 .2.3.8 1-.5-.7-.8-1.4-1.1-2.2-.2-.7-.2-1.4.1-2.1.1-.2.1-.1 0 .1.1-.4.2-.7.4-1.1l.1-.1s.1-.1.1 0l.2.2.5.3c-.2-.1-.1 0-.2 0h-.1s-.1-.1-.2-.1l-.1-.1-.1-.1-.1.1.1-.1h.1l.1.1.3.2.6.4 1.2.9c.8.6 1.5 1 2.2 1.5 1 .6 2 1.4 2.9 2.1l-.3-.2c5.4 3.8.6.2 4.8 2.9l.4.4-.1.1-1.7-2.3-.6-.3c-.5-.5-1.4-1.5-1.2-1.3-1.9-1.7.2.4-.9-.6-1.1-1.2-2.6-2.9-3.9-4.3-.9-.9-1.7-2-2.2-3.2-.3-.5 0 .2.3.6.1.2.2.4.1.3-.3-.3-.6-.7-.8-1.1 0-.3-.1-.6-.2-1.1-.1-.5 0-1.1.1-1.6.1-.6.4-1.3.7-1.8.2-.3.4-.6.6-.8.2.3.4.5.6.8l-.5-.5c-.1-.2-.2.1-.2.1-.1.1-.1.2-.2.3-.1.1-.1.2-.1.2l.2-.2c.1-.1.2-.4.4 0 .8.8 1.6 1.7 2.2 2.7.9 1.3 1.9 2.6 2.7 3.6.3-.1 3.5 4.3 6.1 7.6 0 0 .1.1.3.4l.4-.3c-.8-1.6-4-7.1-5.6-10l.1.1c-.6-.5-2.6-4.1-4.3-6.5.2 0 .6.4 1.5 1.8-.5-.8-1-1.6-1.5-2.3-.2-.3-.4-.6-.4-.9-.1-.6.1-1.3.4-1.8-.1.2-.1.4-.1.7.1-.4.3-.8.6-1.1.1-.2.3-.4.4-.5l.2-.3.1-.2.3-.3.2-.1.1-.1.1.1.5.8c1.1 1.9 2.1 3.8 3 5.8.3.2-1.3-3.6 1.1.8 0 .2-.1.4-.7-.7.2.4.8 1.3 1.2 2.1L88 51.7c.9 2 .6.9 1.4 2.5-.1 0 .5 1.2.3 1-.2-.4-.7-1.4-1-1.9.9 1.7 1.9 3.9 2.2 4.6 0-.2.2-.1.8 1.2 1.7 3.3.4 1.2 1.4 3.1.5.7 1.4 2.6 1.6 2.8l1.5 1-.7-1.3c0-.1-.1-.1-.1-.1-.2-.5-.4-1.1-.5-1.6-.8-1.7-3.3-8.3-2.7-6.2l.2.5-.1-.3c-1.2-2.9-2.4-5.9-3.5-9l-.8-2.3-.4-1.2c-.6-.7-.6-1.1-.7-1.5-.1-.8-.2-1.5-.1-2.3.1-.7.3-1.5.7-2.1h.1c.2-.4.5-.8.8-1.1l.5-.5c.1-.1.3-.2.4-.3.1-.1.3-.2.5-.3l.1-.1v.1l.1.3.4 1.2c.6 1.9 1.1 3.6 1.5 4.8.3 1.1.6 2.5.4 2.1.8 2.7 1 3 2 7-.4-.9-.7-1.8-.9-2.8 1 3.6 1.1 4.4 2.4 8.2-.5-1.3.6 2.7 1.1 4.4l-.6-2.5c.5 1.5.8 2.8 1.2 4.2l.9-.2-.3-1.1.4.9c-1.3-7.4-3.2-13.3-3.7-19-.5-1.9.6 4.1.1 2.3-.6-3.4-.8-7.1-.9-8.1-.1-1.4.1-2.8.7-4.1.2-.6.5-1.1.9-1.6.2-.3.5-.6.8-.9.2-.2.4-.4.7-.6-.1 0-.3.1-.2-.1.2-.2.3-.4.5-.6h.1v.2l.1.4.2 1c.5 3.4.3 4.3-.1 2.1-.1-.4-.1-.8-.1-1.2l-.1-.8c0-.1 0-.2-.1-.3 0-.2-.1-.1-.1.2 0 .1.1.1.1.2.2 1.7.9 6.5.6 5.4.5 2.6.3 1.1.1-.8.5 4.4 1 6.9 1.6 11.5-.1-.7-.1-1.4 0-.7.9 6.7.6 2.9 1.3 7.4.2 2.6-.4-.9.3 3.7.3 2.8-.1.6-.4-.5.3 1.7.5 3.3.7 4.8l1.6-.1v-5.4l.1 2.2c-.1-1.3-.1-2.4-.2-3.5l-.1 1c-.1-.8-.1-1.6 0-2.4-.2-1.3-.2 1-.5-1.6 0-1.7-.3-5.3-.1-5.9.2 5.4.2-.6.4 4-.1-1.1-.1-2.2-.1-3.3 0-.2.1.2.1.5-.1-5.2-.3-2.4-.6-7.8.2.7.2-1.3.1-2.1.1 2.2-.1 1.1-.4-.9-.1-1.7-.2-2.7-.3-3.4l-.1-1c0-.3 0-.6-.1-1.1v1l.1 1c-.1-.6-.2-1.1-.2-1.7 0-1 .1-1.9.6-2.8.1-.1-.1.4-.2.8l-.1.4.1-.5.2-.5c.1-.3.3-.6.5-.9.4-.6 1-1.1 1.6-1.5l.5-.3.5-.3.5-.2c.1 0 .2-.1.3-.1.1 0 .2-.1.3-.1h.1v.3l.1.9c0 1.7-.2.2-.2 1.7.3 4.2 0 4.5.3 8.9.1-1.3.1-1.5.3 1.6l-.4-7.2.4 4.6c-.1-2.2-.3-4.6-.3-5.9.2 2.2.2 2 .3.9-.1 3 .4 5.9.4 9.4l-.4-.1c0 5.2.6 9.2.8 15.9v-2.2c.2.9.2 4.2.3 6.3-.1-.2-.1.8-.2 1.7h1.4v-.4c-.1.1 0-4.9-.2-5.5l.2-3c.1-5.4-.3-6.2-.2-11.4.1 1.6.3-.8.3 2.7.1-1.1.1-2.2 0-3.3.1-1-.1-4.8 0-6.4-.1-1-.2-2-.1-2.9 0-.2.1 0 .1 0v-1.8s-.1.1-.1.5c0-.4.2-.8.2-1.2.1-.4.2-.8.4-1.2.4-.9.9-1.7 1.5-2.4 1.2-1.5 3.4-2.9 4.3-3l-.2 1.6-.2 2.1c-.1 1.3-.3 2.5-.4 3.5-.1 2-.1 4.1 0 6.1l.3 5.8c0-.2-.1 0-.1-.7.1 4.8.5 2.9.6 8.3-.1 2.8-.2-2.9-.2-1.1-.4.8.3 6.5.1 10.2l-.1-.9c-.1 2.8.4 6.8.4 11.4 0 0 0-.2-.1 0 .1 1.6.3 3.8.3 6.2.1 1.2 0 2.4-.1 3.6-.1 1.2-.3 2.3-.5 3.4.1-1.4.3-2 0-1.2-.2 1-.1.8 0 .9 0 .1.1.5-.3 2.4-.4 1.4-.9 2.9-1.5 4.2.4-1.2.7-2.4 1-3.5-.7 1.8-1.3 4.6-1.9 6.4v-.3l-.3.9-.1.4c-.1.2-.1.4-.1.7 0 .2.1.4.2.6.1.2.2.3.3.5l.6.6c.4.3.8.5 1.2.6l.6.2.6.2c2 .5 4.1.7 6.1.8-.2 0-.4-.1-.6-.1 1 0 2.1 0 3.1.1s2.1.1 3.1 0l1 .2c1.1-.1 3.1-.4 5.2-.8 1.1-.2 2.2-.3 3.2-.4 1 0 2.1.1 3.1.3-1.5-.2-3-.2-4.5 0-1.7.2-3.6.6-5 .8 1.1-.1 3-.4 4.6-.6 1.2-.1 2.5-.2 3.8-.1-.9-.1-1.8-.1-2.8-.1 2.6-.4 6.1.3 10 2.2-.5.1 2 1.3 4.8 3.1.7.4 1.5.9 2.2 1.3l.2.1.1.1h.1c.1 0 .2.1.3.1.2.1.4.1.6.1 0 0 .1 0 .1.1 0 0 0 .1-.1.1-.1.1-.2.1-.3.1-.2.1-.3.1-.5.2-.1 0-.2.1-.4.1l-.5.1c-1.8.6-3.6 1-5.5 1.2-.9.1-1.8.1-2.8 0-1-.1-2-.2-3-.2-2.1 0-4.1.1-6.2.4-2.2.3-4.3.7-6.5 1.2 1.6-.2 1 0 0 .2s-2.2.6-1.9.8c-1 .3-1.7.6-2.1.7-.5.2-.7.2-.8.3-1 .4-2 .8-3 1.1-1 .3-2 .6-3 .8-.7.1-.3 0 .4-.2.4-.1.9-.3 1.3-.5-.9.3-1.9.6-2.9.6H114l-.1.1s.1-.1.1 0c.1 0 .1 0 0 0-.2.2-.4.5-.6.7-.1 0-.1.1-.2.3-.1.1-.2.3-.3.4l.4 1.8c.1.4.2.9.3 1.4-.2-.9-.3-1.5-.6-3.1.1-.1.2-.3.3-.4l.1-.2c0-.1 0-.1.1-.1l.1-.1-.1.1c-.1 0-.1.1-.1.1l-.1.2c-.1.1-.1.3-.2.4.2.8.4 1.5.6 2.1.1.5.2.9.3 1.3.2.8.3 1.4.4 2.1.2 1.3.5 2.7 1.1 5.6-.2-.7-.3-1.3-.5-1.9 1 3.1 1.2 11.9 1.5 15.1 0 .6-.2 1.3-.2-.1 0 7.8-.2 17.5-.8 23.6l-.1-.6c0 1.5.1 2.6-.1 4.4 0-.1-.1-.6-.1.1v5.9c-.1-.6-.1-1.1-.1-1.7 0 2.1.1 4.2.3 6.3.1.9.2 1.8.4 2.7l.1.6c0 .1 0 .2.1.2l.1.5c-.1.2-2.8-1.1-4.1-2.9.1-.1-.7-1.3-1.1-2.9-.1-.4-.2-.9-.2-1.3 0-.5 0-1-.1-1.5l-.1-2.7v.1c-.3-8.9-.6-15.2-.9-23.5.1-1.2.1-2.8.1-4.6h-1.5c-.3 6-.4 14.8-.7 21.1.1-1.3.2.2.2 1.7-.1 1.9.1 5.4-.2 5.1v-.7c-.3 2.8-.4 5.7-.4 8.6l.3.5c0 .1 0 .2-.1.4 0 .1 0 .2-.1.3-.1 0-.2-.1-.3-.1l-.1-.1-.2-.1c-1-.5-1.8-1.1-2.5-2-.7-.9-1.1-1.9-1.2-3-.1-1.1.1-2.4.1-3.6.2-4.9.3-9.3.6-11.5v-6.4l.2.1c.1-3.6.2-6 .3-9.5l-1.8-.1-.7 5.4v-1.4c-.5 3.8-.1 4.8-.5 8.3l-.4 1c-.4 3.3-.9 6.6-1.4 9.9-.2 1.6-.4 3.3-.6 4.9l-.3 2.5v1c0-.2-.1-.3-.1-.5 0 .1 0 .2-.1.2-.1-.1-.2-.2-.3-.2l-.2-.2-.3-.3c-.2-.2-.4-.5-.6-.7-.4-.5-.7-1-.9-1.5-.4-.8-.7-1.7-.8-2.6 0-.6-.1-1-.2-.7.3-1.3.4-2.5.5-3.8.3-2.1.6-4.7.8-6.5l.1.6c.2-2.4.5-4.9.9-7.3.2-1 .3-.8 0 .5.7-3.3.3-2.6 1.2-6.5l-.2 1.5c.3-1.3.5-2.7.7-4.1l-.9-.2-.2.9c-.5 2.3-1.2 4.5-2.1 6.7-.2 1.4-.5 2.9-1 4.3-.1.2 0-.5.1-.8-1.6 5.5-2 8.3-3.2 12l-.3.6c1.2-4.4 2.2-7.9 2.1-7.6-.2 0-1.2 3.5-.6.6l-1.2 5.4c-.2 1-.5 2-.7 3l-.3 1.1-.1.3s0 .1 0 0h-.1l-.1-.1c-.1 0-.1-.1-.1-.2h.1l-.2-.1-.2-.2-.4-.3-.3-.3c-.5-.7-.9-1.5-1-2.3 0-.7 0-1.5.1-2.2.2-1.1.5-2.2.9-3.3-.2.1.6-2.2-.3-.1-.1.5-.3 1-.5 1.5-.1.3-.2.6-.2.7v-.1c-.4 1.3-.5 2.8-.1 4.1-.5-1.5-.5-3.1.2-4.6.2-.9.4-1.9.5-2.5 1.1-2.3 2.9-6.8 3.3-7.4 1.1-3.2 2.6-7 3.8-10.3l-1.1-.5c-1 2.1-1.8 3.9-2.3 5.2-.3.7-.7 1.4-1.2 2.1.4-.8.9-1.8 1.1-2.3-1.4 2.9-4.2 8.5-4.3 9.2-1.9 3.5.8-2.1-1.6 2.8l.3-.7c-.6 1.1-1.2 2.3-1.8 3.4l-.2.4-.1.2v.1h-.1c-.1-.1-.2-.2-.3-.2l-.1-.1-.3-.3c-.7-.7-1.2-1.6-1.2-2.6 0-.2 0-.4.1-.7.1-.2.2-.4.4-.7l.9-1.5c2.2-4 4.4-8.1 7.6-13.3-.2.4-.5.8-.8 1.2l1.9-3.2-.7-.4c-1.9 2.5-3.8 5.1-5.8 7.6l-2.9 3.9-1.4 1.9-.6.8-.2.3-.1.2-.1.1-.1-.1c-.2-.2-.3-.4-.5-.6l-.1-.2-.1-.3c-.1-.2-.2-.3-.2-.5-.3-.7-.4-1.4-.3-2.2.2-.7.5-1.4.9-2 .4-.6.9-1.2 1.4-1.9 2-2.4 4.2-4.7 6.4-6.8 1.1-1.2 1.8-1.9 2.3-2.4l-.6-.7c-.9.7-1.4 1.2-2.5 2.1l-.8.3-3.1 2.6-3.3 2.4-1.5 1.1-.5.4c-.1-.2-.3-.4-.3-.6 0-.1-.1-.2-.1-.3 0-.1-.1-.3-.1-.4 0-.3-.1-.6 0-.9.1-.6.3-1.3.6-1.8l.6-.9c.2-.3.5-.6.7-.9.6-.6 1.2-1.1 1.9-1.5-.3.1-.6.2-.8.4 1.4-.9 2.9-1.7 4.4-2.4.8-.4 1.7-.8 2.6-1 .5-.3.9-.5 1.4-.7l-.2-.6h-.3l-.1-.1-6.2 1.4c-2.4.4-2.3.3-2.4.2 0 0-.2-.1-.7 0h-.5c-.1 0-.1-.2-.1-.3v-.3c0-.1.1-.1.1-.2.3-.6.8-1.1 1.3-1.5.6-.5 1.3-.9 1.9-1.2 1.3-.6 2.2-1 1.7-.9-1 .3-2.6.9-2.7.9.7-.4 1.5-.7 2.2-1 .2-.2.7-.6.4-.6-.4 0-.8.1-1.1.2-1.1.3-2.1.7-3.1 1.3-.6.5-1.2 1-1.7 1.7-.3.4-.5.8-.6 1.3-.1.5-.1 1 .1 1.5 0 .2.1.3.1.5v.1h.3l.4.1h.5l-.4.1h-.9c-.2-.3-.4-.7-.4-1.2v-.7c0-.2.1-.5.2-.7.1-.2.1-.4.3-.5.1-.2.2-.3.3-.4-.2.2-.4.5-.5.7-.1.2-.1.3-.2.5s-.1.4-.1.5c-.1.6 0 1.2.3 1.8.5.1 1.1.1 1.6-.1l.4-.1.3-.1.5-.1c.6 0 1.2-.1 1.8-.2l4-1.1c.5 0-1.8.6 1 .1 1.9-.5-1.9.1 1.2-.6.4 0 .7-.1.9-.1l-.3-1.1c-1 .2-1.9.6-2.7 1-.3.1.1-.2 1-.6-1 .4-2.2 1-3.4 1.6-.9.4-1.8.9-2.6 1.5-.6.3-1.2.7-1.8 1.1l-.9.9-.4.5-.4.5c-.5.9-.9 1.7-1.2 2.7 0 .4 0 .7.1 1.1 0 .3.1.5.2.8 0 .1.1.1.1.2s.1.2.1.3l.3.6c.2.3.5.7.8 1l.1.1h.1l.1-.1.3-.2c.2-.1.4-.2.5-.3l1.5-1.1c-2.6 2.4 5.8-4.3 5.3-3.4 1-.9 2.9-2.4 5-4l-1.1-1.2c-1.8 1.8-3.7 3.8-5.1 5.6.2-.3.5-.6.8-.9-1.8 1.9-2.4 2.4-3.5 3.6-.4.8-.9 1.5-1.4 2.2l-1.2 1.8c-.4.6-.5 1.3-.5 2-.1.9 0 1.2-.1 1.2-.1-.2-.2-.5-.2-.8v-1.3c0-.4.1-.5-.1-.2.1 0 0 .4-.1 1 0 .7.1 1.4.3 2.1.1.3.3.6.4.9l.2.4c.1.2.2.3.3.4.4.5.5.6.3.2.2.3.5.7.7 1l.2.2.1.1.1-.1.3-.3.4-.4.3-.4.3-.3.3-.3.5-.5c0-.5 1.3-1.8 2.4-3.6 2.2-2.7.8-.5 3-3.7.9-1.3-1 1.6-1 1.6zm4 22.3l-.1.4s0 .1-.1.2l-.2-.1-.6-.3c-.3-.2-.7-.4-1-.6l.9.6.6.3h.3v-.1c.1-.1.2-.3.2-.4zm2.2-7.9l-.9 3.2c-.1.2-.1-.1.1-.8.3-.7.6-1.5.8-2.4zm-5.4 1.2c0 .4-.1.8-.1 1.2v.4c-.1-.6 0-1.3.1-1.9v-.1.4z" data-color="1" class="icon1"></path><path d="M88.3 158.7l.1-.5-.3.7-.1.4.3-.6z" data-color="1" class="icon1"></path><path d="M91.7 56.5l-.1-.2c0 .1.1.2.1.3v-.1z" data-color="1" class="icon1"></path><path d="M101.5 157.6v-.7.7z" data-color="1" class="icon1"></path><path d="M82.8 52.2c.1.2.2.3.2.5 0-.2-.1-.3-.2-.5z" data-color="1" class="icon1"></path><path d="M90.5 64.1L89 62l1.5 2.1z" data-color="1" class="icon1"></path><path d="M81.9 52.9l-.2-.2.2.2z" data-color="1" class="icon1"></path><path d="M100.1 33.1v-.6c0-1.4-.1-.4 0 .6z" data-color="1" class="icon1"></path><path d="M94.5 32.5c.4-.6.9-1.2 1.4-1.8-1 1-1.5 1.7-1.4 1.8z" data-color="1" class="icon1"></path><path d="M107.4 36.5V36v.5z" data-color="1" class="icon1"></path><path d="M98.1 30.5c-.1-.4-.1-.7-.2-1.1v-.3h-.1l-.1.1-.4.3c-.5.4-1 .8-1.4 1.3.5-.5 1-.9 1.5-1.3l.4-.3c.1-.1.1 0 .1.1v.2l.2 1z" data-color="1" class="icon1"></path><path d="M85.9 70.4l-.7-.1h-.1l.8.1z" data-color="1" class="icon1"></path><path d="M85.2 70.3l-.7-.1c.2.1.4.1.7.1z" data-color="1" class="icon1"></path><path d="M82.8 70l1.6.2c-.5-.1-1-.2-1.6-.2z" data-color="1" class="icon1"></path><path d="M76 62v-.3c-.1.1-.1.2 0 .3z" data-color="1" class="icon1"></path><path d="M80.4 61.5l-2.1-1.6c-.1-.1-.3-.2-.4-.3l-.4-.2-.2-.1s-.1-.1-.1 0l-.1.1c-.1.1-.2.3-.3.4-.2.3-.4.6-.5.9-.1.2-.1.3-.2.5 0 .1-.1.3-.1.4v.2c0-.5.2-.9.4-1.3l.6-.9.2-.2.1-.1.1.1.5.3c.3.2.7.5.9.7l.6.5c.3.2.7.4 1 .6z" data-color="1" class="icon1"></path><path d="M81.5 59.8c1 1.2 2.1 2.4 3.2 3.5-.5-.7-1.2-1.5.3 0-2-2.3-1.8-2-1.6-1.8.1.4.2.6-1.9-1.7z" data-color="1" class="icon1"></path><path d="M82.2 54.8c-1.6-2-.1.1-.2 0 1.1 1.2 1.3 1.5.2 0z" data-color="1" class="icon1"></path><path d="M92.4 46l-.2-.2c.6 1.9.1 0 .2.2z" data-color="1" class="icon1"></path><path d="M96.9 61.1l.3 1.9.1.4 1-.2-.2-.5.2.5-.8.2c0-.1-.6-2.3-.6-2.3z" data-color="1" class="icon1"></path><path d="M95.8 49l.2.8-.7-3.2.5 2.4z" data-color="1" class="icon1"></path><path d="M114.4 26.6l.3-.6c.1-1.3-.2-1.6-.3.6z" data-color="1" class="icon1"></path><path d="M120.4 97.7c1.5.2 2.9.3 4.4.2-1.8 0-3.5-.2-4.4-.2z" data-color="1" class="icon1"></path><path d="M105.8 175.9c.2.1.5.2.6.3l-.3-.1c0-.1-.1-.1-.3-.2-.3-.2-.7-.4-1-.7.3.3.7.5 1 .7z" data-color="1" class="icon1"></path><path d="M36 111.7c.1 0 .1-.2-.2-.2l-.2.2h.4z" data-color="1" class="icon1"></path><path d="M34.2 110.8c-.4 0-.8 0-.7.3.3 0 .6 0 .9-.1.3.1.5.2.4.3.1 0 .4.2.6.1-.4-.3-.8-.4-1.3-.4 0-.1.1-.2.1-.2z" data-color="1" class="icon1"></path><path d="M33.1 105c.1 0 .1 0 .2.1-.1-.1-.1-.1-.2-.1z" data-color="1" class="icon1"></path><path d="M38.8 100.4h-.2c.1.1.2.1.2 0z" data-color="1" class="icon1"></path><path d="M41.7 101h-.2.2z" data-color="1" class="icon1"></path><path d="M33.1 105l-.4-.2.4.2z" data-color="1" class="icon1"></path><path d="M30.6 109.1l.2.2-.2-.2z" data-color="1" class="icon1"></path><path d="M40.5 105.5h.1l.1-.1-.2.1z" data-color="1" class="icon1"></path><path d="M39.4 106.8c.1 0 .2-.2.2-.3-.1.1-.2.1-.3.2.1 0 .1.1.1.1z" data-color="1" class="icon1"></path><path d="M30.9 107.7v.1-.1z" data-color="1" class="icon1"></path><path d="M36.5 105.2c-.1 0-.1 0 0 0-.1 0-.1 0 0 0z" data-color="1" class="icon1"></path><path d="M81.1 85.6c0-.1 0-.1 0 0z" data-color="1" class="icon1"></path><path d="M82.4 79c0 .1.1.1.1.1l-.1-.1z" data-color="1" class="icon1"></path><path d="M40.2 98.8c.2 0 .1 0 0 0z" data-color="1" class="icon1"></path><path d="M36.8 86.8c-.4-.4.9.2.2-.4.1.2-.7.1-.2.4z" data-color="1" class="icon1"></path><path d="M30.5 109c-.1-.1-.1-.2-.2-.3.1 0 .2.1.2.3z" data-color="1" class="icon1"></path><path d="M31.9 93.2l-.1.1c0 .1.1 0 .1-.1z" data-color="1" class="icon1"></path><path d="M37.1 98.4l-.2-.1c.1.1.1.1.2.1z" data-color="1" class="icon1"></path><path d="M34 92.7c.1.1.2.1.3.1-.2-.1-.3-.1-.3-.1z" data-color="1" class="icon1"></path><path d="M38.7 93.9l-.2-.1.2.1z" data-color="1" class="icon1"></path><path d="M72.3 93.3c.1 0 .1.1.2.2-.1-.2.6-.2-.2-.2z" data-color="1" class="icon1"></path><path d="M30.7 109.1c-.1 0-.1 0-.2-.1.1 0 .1.1.2.1z" data-color="1" class="icon1"></path><path d="M34.5 91.2l.8.2c-.2 0-.5-.1-.8-.2z" data-color="1" class="icon1"></path><path d="M41.1 78.6l.2.1c-.1 0-.2-.1-.2-.1z" data-color="1" class="icon1"></path><path d="M37.6 92c.1.1.3.2.4.2h.1l-.5-.2z" data-color="1" class="icon1"></path><path d="M77.1 92.6c-.6.2-.2.3-.3.5-.8.3-.4-.1-.7-.2-.4.2-.8.3-1.3.4 0 0-.1 0 0-.1-.6.2-1.7.1-2.3.3 0 0-.1 0-.1-.1.1.1.1.2.1.4-.3 0-.6.1-.7-.1.2 0 .2 0 .3-.1h-.4c-.3-.3.5 0 .5-.2-.7.1-1.3.1-2 0-.1-.2 1.2.1.6-.2.3.1.5.1.8.2-.6-.4.5.1 0-.4-1-.2-1.2 0-2.2-.2-.3.1 0 .2-.2.3-1.5 0-1-.8-2.2-.7-.4.2-.8.2-1.2 0l.3-.2c-1-.3-.7.2-1.7-.2.2 0 .8.1.7 0-.6-.4-.5 0-1-.1v-.3c-1.1-.3-2.3-.4-3.4-.8.1 0 .3 0 .1-.2-1.5-.4-2.9-1.1-4.2-2H56c-.1-.1-.2-.2 0-.2-.5-.3-.1.1-.4 0-.3-.1-.3-.3-.1-.3-1.2-.5-2.4-1.1-3.4-2l.2.1c-.7-.5-1-.2-1.6-.8l.1.1c-1.5-.9-2.9-2-4.2-3.1-.4.1-1.4-1.1-1.7-.9-.5-.6-1-1.1-1.6-1.6-.3-.2-.6-.1-1-.4l.1-.2-.7-.2-.1-.4-.4-.2c.1.1.3.3.2.3-.5-.3-1-.7-1.3-1.2l-1.6-1-.6.6c.1-.3.3-.6.5-.8-.5.6-.5.6-.6.6-.1 0-.1-.1-.5.6.1-.1 0 .2 0 .2-.3.3-.5.6-.7 1-.2.4-.3.8-.4 1.3l-.1-.2c-.2.8-.1 1.6.1 2.4.3.8.7 1.5 1.3 2.1-.3-.5 0-.5.3-.2v.3c.3.1-.3-.4.3-.1.4.4.1.4-.2.3l.6.4c0 .1-.2 0-.2 0 .3.1.7.9 1.2 1v.1c1.1.9 1.7 1.2 2.6 1.8.1-.1.5.1.8.2.7.6 1.4 1.2 2.2 1.7.7.3.3 0 .6 0 0 .2.8.7.3.5.7.4 1 .6 1.7.9l.7-1.4-1.2-.4c.1.1.3.2.2.2-.3-.1-.5-.3-.5-.4h.1c-1.7-.4-3.4-2-4.8-2.2h.1H41c-.6-.3.4 0 0-.3-1.5-.3-2.2-1-3.4-1.3-.6-.5-1.2-.9-2-1.1l-1.1-.4c-.4-.1-.7-.2-1.1-.3-.1-.1-.1.1-.1.2l-.1.1-.2.5-.3.9.1-.1c0 .2 0 .4-.1.6-.1.1-.1.2-.1.3.1 0 .2-.4.2-.2-.1.8-.1 1.6.1 2.4.1.9.5 1.7 1.1 2.4.6.6 1.2 1.1 2 1.6.7.4 1.3.8 2 1.1 1 .5.8-.3 2 .5l-.4.1c1.7.5 3.4 1.2 5.1 1.7l.5-1.6c-.4-.1-.9-.2-1.3-.3.1 0 .2-.1.4 0-.5-.3-1.1-.4-1.6-.3-.3-.1 0-.1-.2-.3-.4-.2-1.1-.1-1.3-.3h.2c-.3 0-1.3-.4-1.1-.1-.7-.3-1.5-.3-2.1-.6-.5.1-1.3-.5-1.5-.2.1-.3-1.3-.6-1.8-.6.2 0-.4-.2-.2-.3-.6-.1-1.1-.2-1 0-.2-.1-.5-.3-.7-.3-.4-.1-.8-.2-1.2-.2-.3 0-.8-.2-.8.2-.1.3-.2.5-.4.7-.1.4-.1.7-.1 1.1v.7c0 .4.1.9.2 1.3s.2.9.4 1.3l.3.6c.1.2.3.4.4.6-.1 0-.2 0-.4-.2-.1-.2-.3-.4-.4-.6-.2-.4-.3-.9-.5-.8.1.4.3.7.5 1 .1.2.2.3.4.5l.4.4c.6.4 1.2.7 1.8 1 .3.2-.3 0-.4 0 1.3.6 2.7 1 4 1.3h-.3c.3.1.6.2.6.1h-.3c-.3-.3 1.1-.1 1.2-.2-.5.3 1.2.4.4.7.2 0 .4 0 .4-.1.2.1.3.2 0 .2.9.1.6-.1 1.4.1 0 .1-.2.1-.3.1.5-.1 1.1 0 1.6.1 0 0 0 .1-.2.1.5.1 1.1.1 1.6.2l.1-.9c-.6 0-1.2 0-1.8-.1.4-.3-.4-.1-.5-.4h-.7l.3.2c-.6 0-1.1 0-1.7-.1l.5-.1-1.2-.1.6.2c-.6.1 0 .3-.8.2-.3-.1-.6-.1-.9-.2-.4.1-.7.1-1.1 0-.1-.1.1-.3.1-.3-.3.2-1.5-.1-1.9.1.1 0 .2-.2.1-.2l-.3.1c-.1-.3-.1-.4-.1-.5-.9-.1.2.4-.8.1h.2c-.4-.1-.9-.1-1.4-.1h-1.1l-.4-.1c-.1-.1-.1-.1 0-.1h.3c.2 0 .4 0 .3-.1-.5 0-.9-.1-1.4 0h-.1l-.1.1-.1.2c-.1.1-.1.2-.2.3-.1.2-.2.5-.2.7-.1.8-.1 1.5.1 2.3v-.3c.2.1.2.3.3.6 0 .4.2.7.5 1-.1-.1-.3-.1-.2-.1.1.2.3.4.4.6.2.2.4.4.6.5l.3.3.4.2c.1.1.3.1.5.2s.3.1.5.2h-.2c.6.3 1.3.5 2 .6.2-.1.5 0 .3-.2 1.7.8 3.4 0 5 .5-.2 0-.5.1-.3.1l1.4-.1c-.1-.2-.2-.1-.5-.2.3-.1.6-.2.9-.2-.6.1 0 .3.3.3v-.2c.7.3.1-.3 1.1-.1v.1c.2 0 .3-.1.5-.1v-.2c-.2.1-.4.1-.6.1-.2-.2.4-.1.4-.3-.5.1-1 .5-1.5.3.2-.1.6-.1.8-.2-.3-.1-.7-.1-1-.1h-.9.2c-.6.5-1.4.2-2.3.6.9-.4.1-.2.2-.4-.2 0-.6-.1-.5-.1-.4.2-.7-.1-1.3.2 0-.1-.5 0-.4-.1-.6.1.1.1.1.2-.8.3-2.1-.1-3.3.4-.4.1-.8.2-1.2.4l-.5.2c-.1.1-.4 0-.4.4-.1.1-.1 0-.2-.1v-.3c-.3.5-.3 1.1.1 1.6-.1-.1-.1 0-.1.3.3.4.4.1.7.6-.2 0-.4-.1-.5-.1.4.4.9.6 1.4.8.1.2-.4 0-.6-.1.5.3 1.4.7 1.7.6-.1-.1-.2-.1-.3-.2.2.1 0 .2-.1.2-.5-.1-.6-.4-.6-.5.1.1.2.1.3.1-.1-.2-.4-.4-.8-.6-.4-.2-.7-.5-1-.8.1 0 .3.1.4.1l-.3-.2-.3-.3c0-.2.1-.3.3 0 0-.1-.1-.3-.1-.4-.1-.1-.1-.2 0-.4h.1v-.4l.1.1v.2l.1-.1h.3c.1 0 .2-.1.3-.1.1 0 .2-.1.3-.1h.3-.1c1.2-.2.1-.2 1-.6l.7.4.1-.2c.1 0 .4 0 .3.1.5-.2-.1-.1.2-.2.6.1 1.7-.3 1.9.1.2-.2-.6-.1 0-.2.2.3.8-.1 1.3 0-.2.2-.7.2-.1.3.3-.3 1.1 0 1.6-.2 0-.2 1-.2 1.8-.4.6.1 1.1.1 1.7 0l-.1-.8h-.6c-.1.3-.9.2-1.5.3 0-.1.1-.2.4-.3h-.5c-.2.1-.4.2-.6.1l.1-.2c-.8.1-1.5.1-2.3 0-.1.2.7.5-.3.6 0-.1-.1-.3.2-.3h-.5l.4-.1c-.4-.1-.2.1-.6.1 0-.1-.2-.1-.2-.2.1 0 .3.1.4 0-.3 0-.7-.1-.9-.3 0 .1 0 .2-.3.2-.7-.1-.2-.2-.6-.3-.2.1-.6-.1-.6.1-.2 0-.2-.1-.3-.2-.4.1-1.6-.3-1.3 0h.1-.1c-.3 0-.6-.1-.9-.2-.1-.1-.3-.1-.4-.2-.1-.1-.3-.1-.4-.2l-.6-.6-.6-.6h.1c-.4-.5-.8-1.1-1-1.7 0-.2.1-.5.2-.4v-.8c0-.1.1-.2.2-.4 0 .4.1-.1 0 .5 0-.1.1-.2.1-.3l.1-.2c0-.1.1-.1.1-.2 0 0 0-.1.1-.1h.1c0 .1.1.1.2.2h.5l-.2-.1c-.1 0-.1 0-.2-.1h.5l.5.1-.2.2c1.4.4 2.6-.2 3.7.4.4-.1-.8-.2-.4-.3.5.1 1 .3 1.5.5.9.2.9-.2 1.8-.1-.1-.1-.2-.3.5-.3.7.1.8.4.4.4-.2 0-.2 0-.2-.1-.2 0-.5 0-.2.1l.1-.1c.3.1 1.2.2 1 .3.5 0 .2-.1-.1-.2.8.2 1.3.1 2.2.3-.1-.1-.3-.2-.1-.2 1.3.2.6-.1 1.4 0 .5.2-.1.3.6.3l.2-1.1h-.1c-.5-.2-.1-.2.1-.3l-.2 1.6.2-1.6c-.6-.1-1.3-.2-1.8-.5h.4c-.2 0-.4 0-.7-.1l.2.2c-.2-.1-.4-.1-.4-.2-.3.1.1.3-.4.3-.3-.1-1-.1-1.1-.4 1 .3-.1-.2.8-.1-.2 0-.4-.1-.6-.1h.1c-.9-.4-.5.1-1.5-.1.2-.1-.2-.3-.3-.3.4.1.1.2-.2.2-.6-.3-.7-.1-1-.2l.4.2c-.2.1-.5 0-.9-.1 0-.1.4.1.3 0-.5.1-1-.5-1.7-.6-.3-.2.1-.2-.2-.4-.8-.1-.7-.5-1.4-.7.1.2.2.2-.4.1.4.2.8.3 1.2.5-.3 0-.6-.1-.9-.1.3.2.8.3 1 .4-.4 0-.4-.1-.2.1-.4-.4-1.1-.3-1.5-.8l.2-.3-.4-.4-.1-.1-.2-.2c-.3-.4-.5-.9-.5-1.3v.4c-.2-.1-.2-.7-.2-1.1.1 0 .2-.2.3-.4v-.7c0-.1-.1-.1-.1-.2l.2-.2v-.1h.1c.1 0 .1-.1.2-.1s.2-.1.3-.1c.2 0 .4.1.6.1-.3.1.1.3-.6.2.3.1.6.2.6.1.2.1.9.1 1.2.3.2-.1.4-.1.6 0v.1c0-.1.6.1.3-.2.9.7 2.8.7 3.5 1.3.7.1 1.6.3 2.2.5-.1 0 0 .1-.1 0 .8.4.6-.2 1.6.2.5.3-.6 0-.3.1 0 .5 1.2.3 1.8.7h-.2c.3.1.6.2.9.2l.3-1.2c-.4 0-.8-.1-1.2-.3 0 0 .1 0 0-.1-.9-.1-1.7-.2-2.5-.5.3-.1.4 0 .3-.2-.4-.1 0 .3-.7.1-.2-.2-.7-.4-.7-.6l.7.2c-.2-.4-.8-.3-1.2-.5l.1-.1-2.1-.6.1.1c-.7 0-.4-.4-1-.5v-.3c-.7-.2-1.3-.5-1.9-1 .4.2 1.1.5 1.6.7-.4-.3-.9-.5-1.3-.7.1.1.3.2.4.3-.6-.1-1.2-.6-1.4-1.2.3-.1.1-.5 0-1.1-.1-.5-.1-1 .2-1.5V86c0-.1 0-.1.1-.2v-.1h.1l.2.1.1.1h.1c.4.2.7.3 1.1.5-.4-.6.5.2.5-.2.4.1.5.2.5.2l1 .7c.2.2-.4-.1-.4 0 .8.4.3.3.7.6 0-.2.4-.1.8.2l-.6-.5c1.2.3.8.7 2 1h-.4c.9.4 1.9.7 2.8.9.1.1.2.3-.1.2 1.4.6 3.2 1 4.2 1.6h-.1c.3.1.5 0 .8.2 0 0-.1 0 0 .1l.7-1.5c-.4-.1-.7-.2-1-.4l.3.1c-1-.6-2-1.1-3.1-1.5.2-.2-.7-1-1.2-1.3-1.4-1-2.5-1.5-3.8-2.4-.2-.2-.4-.5-.6-.7-.2-.3-.5-.6-.7-.9-.4-.6-.6-1.3-.5-2-.1.2-.2 0-.2-.3 0-.2.1-.4.1-.5 0-.2.1-.3.2-.2v.1c.2-.1.3-.3.4-.5l.1-.2.1-.1V79c-.1-.1-.1-.2-.2-.4h.2c0 .1.1.1.2.2l.1.1.2.1c.3.2.7.5 1 .7.6.3 1 .7 1.4 1.2.4.1.7.4 1.1.6l-.1.1c.7.6 1.5 1.1 2.3 1.7h-.3c.6.4 1.1.1 1.6.4v.4c1 .8 2 1.5 3.1 2.1 0 0-.1.1-.3 0 .5.3 1.8 1.4 1.9 1-.1.2 1.1.7 1.7 1l-.2.1c.5 0 1 .2 1.4.4.2.1.1.2-.1 0 .5.4.5.1 1.1.6h-.3c.3.2.6.3.9.3.4.1 1.1.6 1.1.8.3 0 .6 0 .8.2 0 .1-.1.1-.2 0 1 .6 1.6.5 2.2.9 0 .1 0 .1.1.2-.5-.2-.9-.4-1.4-.6-.1.2.6.5 0 .5.8.1 1.5.2 2.2.5l.1.1H60c.1.1.3.1.4.1.2.1.3.2.5.2 0 .2.8.3 1.1.4 0-.2.5 0 .1-.3 0 0-.1 0-.3-.1h-.1l-.8-.3c.3 0 .7 0 .9.2.2-.1.4-.1.6-.2.4.4 1.2.8 1.3 1 1.1.3 2.1.4 3.2.3.3 0 .3.2.4.2h-.5c.6 0 1.8.3 2 .1.7.2-.5.2.6.3l-.2.1c.9.3 1.9.4 2.8.2 1-.1 2-.2 3-.1-.2 0-.2 0-.3-.1.7 0 1.4-.1 2-.3.7-.2 1.3-.5 1.9-1 1-.9 1.9-2.1 2.4-3.3.2-.4.3-.9.2-1.3l.2-.1v-.8c0-1.1.9-1.8.7-3.2l-.2.2c.1-.5.1-1.6.2-1.5-.1-.1-.1-.2-.1-.4h.1l-.1-1.2c.1-.9.4.2.5-1.2 0-.5-.3-1.5-.4-1.3 0 .2-.1.5-.2.5l-.1-.5c-.3-.1-.6-.4-.9.7l.2.8-.2.2v-.7c-.1.3-.1.6.1.9-.1.1-.2.2-.2.3.1.3.2.5.3.8-.1.1-.2-.4-.3.2.1.4.3-.3.4.3-.2.4-.3.2-.2.7-.1.1-.1 0-.2-.2.1.4 0 1 .1 1.2-.2.4-.1 1.3-.4 1.2.1.3.1.7.1 1.1-.1-.4-.2 0-.3.4s-.2.8-.4.7c.1.4 0 .8-.1 1.1-.2.4-.3.9-.4 1.3v-.2c-.2.2-.3.5-.5.7.2.2-.1.8-.2 1.2-.6.2 0-.4-.3-.5.2.1-.4.8-.2.8-.4.1-.3.2-.6.1.1.1 0 .2-.1.3-.1.1-.3.2-.4.3-.6.1-.3-.2-.8.1.4.3.8 0 .8 0zM60.6 91l.3.1-.3-.1zm-1.3-.5c.2.1.4.1.6.2 0 .1-.1.1-.2.1 0 0-.3-.2-.4-.3zm2.4 2.3c-.2 0-.3-.1-.3-.2l.3.2.1-.1c0 .1 0 .1-.1.1z" data-color="1" class="icon1"></path><path d="M62.2 92.7c.1 0 .1 0 0 0h-.1.1z" data-color="1" class="icon1"></path><path d="M33.3 105s0 .1 0 0c0 .1 0 0 0 0z" data-color="1" class="icon1"></path><path d="M42.5 79.5l.1.1-.1-.1z" data-color="1" class="icon1"></path><path d="M41.3 106.3h.1c0 .1 0 0-.1 0z" data-color="1" class="icon1"></path><path d="M40.8 105.7h-.5.5z" data-color="1" class="icon1"></path><path d="M38.2 105.9c-.1 0-.1 0 0 0z" data-color="1" class="icon1"></path><path d="M36.9 99.7h-.1c-.2-.1-.1 0 .1 0z" data-color="1" class="icon1"></path><path d="M37.4 99.6h.4c-.2-.1-.4-.2-.4 0z" data-color="1" class="icon1"></path><path d="M38.4 99.6c-.2-.1-.4-.1-.6-.1.2 0 .4.1.6.1z" data-color="1" class="icon1"></path><path d="M32.7 110.8l.1.1-.1-.1z" data-color="1" class="icon1"></path><path d="M32.8 110.8h.1c0 .1 0 0-.1 0z" data-color="1" class="icon1"></path><path d="M33.3 111l-.3-.1c.1 0 .2.1.3.1z" data-color="1" class="icon1"></path><path d="M30.2 107.6c-.1-.1-.1 0 0 0z" data-color="1" class="icon1"></path><path d="M30.9 106.6c-.2 0-.4.1-.6.1-.1.2-.2.4-.2.7l.1.1c0-.2 0-.4.2-.6 0-.1.1-.1.2-.1h.2c-.1-.1 0-.1.1-.2z" data-color="1" class="icon1"></path><path d="M35.8 107h-.9c.2.1.4.1 0 .2 1.1.1-.3-.1.9-.2z" data-color="1" class="icon1"></path><path d="M38.6 106.8c-.5.1 0 .1 0 .2.3-.1.3-.2 0-.2z" data-color="1" class="icon1"></path><path d="M29.8 100.9h.2c0-.2-.1.1-.2 0z" data-color="1" class="icon1"></path><path d="M31.9 98.8l-.4-.1-.2.1h.6z" data-color="1" class="icon1"></path><path d="M34 100.3h-.2.6-.4z" data-color="1" class="icon1"></path><path d="M37.8 93.9l-.1-.2c-.2-.1-.3.1.1.2z" data-color="1" class="icon1"></path><path d="M37.9 91.8c-.2-.2-.4-.4-.7-.4.2.2.4.3.7.4z" data-color="1" class="icon1"></path><path d="M38.9 79c0 .1 0 .1 0 0 0 .1 0 .1 0 0 0 .1 0 .1 0 0z" data-color="1" class="icon1"></path><path d="M170.5 88.9c.1.1.3.2.4.1-.1-.1-.1-.1-.4-.1.1-.1.1-.2.2-.2 0 0 0-.1-.1-.2-.1.1-.1.3-.1.4z" data-color="2" class="icon2"></path><path d="M165.4 84.8l.1.1c-.1-.1.2-.2-.1-.1z" data-color="2" class="icon2"></path><path d="M170.9 90.1c0-.1 0-.1 0 0z" data-color="2" class="icon2"></path><path d="M157.5 97.8v-.2.2z" data-color="2" class="icon2"></path><path d="M170.9 89.7c0-.2-.1-.5-.2-.5v.1c0-.1.1 0 .2 0 .1.2-.1.2-.1.2v-.1c-.3.1 0 .4 0 .6l-.2-.1c.1-.5.1-1.1 0-1.6h.3v.1h.2l-.1-.1c.1 0 .2-.1.2-.3l-.2-.2.1-.1c0 .1.1.1.1.2.1-.2-.1-.2-.2-.3 0 0 .1-.1.1-.2-.1 0-.2-.1-.3-.1.1-.1.2 0 .2-.2-.2 0-.1.2-.3.1 0-.2.1-.2 0-.3 0 0 .1-.1.1 0-.1-.1-.2-.3-.4-.2 0-.2-.3-.3-.1-.4-.1 0-.3 0-.4-.1.4-.1-.3-.3-.1-.5-.3.1-.5-.3-.9-.3h.1c-.1-.1-.2-.2-.2-.3-.1.2-.4.1-.5.2-.1-.3.2-.2.2-.4-.1.1-.4 0-.4.2-.1-.2-.1-.1-.1-.3-.1.2-.1 0-.3.1-.2-.2 0-.3-.3-.2-.1-.1.1-.1.1-.1-.3-.1-.2.2-.2.3-.3 0-.1-.2-.2-.3-.2 0-.4.2-.5.2v-.1c-.2.1-.6.1-.8.3.1.1.1.2.1.3-.1 0-.1.2-.2.1.1 0 .1-.1.1-.1l-.1.1c-.2-.1.1-.1.1-.2-.2.1-.4.3-.6.4-.1-.2.3-.2.1-.3h.3c-.3-.2.2 0-.1-.3-.4.1-.4.2-.7.4 0 .1.1.1.1.2-.1.1-.3.2-.4.1-.1 0-.2-.1-.3.1 0 .2.1.3-.1.4l-.1-.2c-.2.2.1.3-.2.5 0-.1.1-.2.1-.2-.3.1 0 .2-.1.3l-.2-.1c-.1.1-.2.2-.2.4 0 .1-.1.1-.1.2 0 0 0 .1-.1.1 0-.1 0-.1-.1-.2 0 .1-.1.1-.1.1-.1-.1-.1-.2-.1-.3h-.2s0-.1.1-.1c-.1-.2-.1.1-.2 0v-.1h.1c-.4-.2-.7-.5-1-.8h.1c-.2-.2-.4.1-.5-.2h.1c-.4-.4-1-.5-1.4-.9-.2.2-.5-.3-.6 0-.3-.2-.2-.3-.6-.5-.1 0-.2.2-.4.2v-.2c-.1 0-.2.1-.2.2l-.1-.2h-.2c.1 0 .1.1.1.1-.2 0-.4 0-.6-.2-.2.1-.4.1-.5.2 0-.1.1-.1.1-.2-.2.2-.1-.2-.3.1v.1c-.2-.1-.5 0-.6.1v-.1c-.2.1-.4.1-.6.2l-.6.3c.1 0 .1 0 .2.1v.1l-.1-.1c0 .1.2 0 .1.2-.1.1-.2-.1-.1-.2l-.1.2v-.2c0 .1-.4 0-.4.3-.3.2-.5.5-.8.7.1.1 0 .2 0 .4-.3.1-.5.4-.7.6-.1.2.1.1.1.3-.1-.1-.3.2-.3 0-.2.3-.2.6-.3 1 .1 0 .1-.1.1 0s-.1.2-.2.1c0 .3-.1.6-.3.9-.1.1-.1.3-.1.5 0 .1 0 .3.1.4l.2.4c0 .2-.1-.1-.2.1l.3.6c0 .2.1.4.2.5-.1.2 0 .5.2.7s.4.5.4.7l.1-.1c.1 0 0 .1.1.2.1-.1 0-.1.1-.1.6.7 1.1 1.5 1.7 2.1.2.2.5-.2.6.2l-.2.1c.6.2 1 .8 1.5 1.1h-.1c0 .2.3.3.4.2.1.1 0 .1 0 .2s.3.1.3.2h-.1c.1 0 .3.3.3.1.1.2.3.3.4.4.2 0 .2.3.4.2-.2.1.1.4.2.5-.1 0 0 .1-.1.2.1.1.2.2.3.1-.1.4.5.4.2.7.1.2.3.4.4.5.1.1.1.2.2.3 0 .1.1.1.1.2l.1.2c-.1.1-.2-.1-.2-.3 0-.1-.1-.2-.2-.2 0 .1.1.1.1.1l.1.2c.1.2.1.3.2.4.1.1.2.3.3.4 0 .1-.1 0-.1 0 .1.1.1.2.3.2h.4c.3-.1.6-.2.8-.4 0 0 0 .1-.1.1.1-.1.3-.1.2-.2l-.1.1c-.1 0 0-.2 0-.3.1-.1.1-.2.1-.3 0 .3.4-.1.4.3 0 0 .1-.1 0-.2.1 0 .1 0 .1.1.2-.2.1-.2.3-.4v.2c0-.2.1-.3.3-.4v.1c.3-.2.4-.6.7-.7 0 .3.2 0 .3.1l.1-.2h-.1c.2-.1.2-.3.4-.3l-.1.1.3-.2-.2.1c.1-.2-.2-.2.1-.3 0 0 .1-.1.3-.1 0-.1.1-.2.2-.3.1 0 .1.2.2.2 0-.2.3-.3.3-.5 0 .1 0 .1.1.1v-.2c.1 0 .1 0 .2.1.2-.1-.2-.1.1-.2v.1c.3-.1.4-.4.7-.6.2.1-.2.2 0 .3.3-.3.5-.7.8-.9h-.1c-.2-.2.3-.1.4-.3 0 0 .1.2.1.1.2-.2.4-.5.6-.8v.1c.2-.1.3-.3.5-.4 0-.1.1-.1-.1-.2.7-.1.5-.9 1.1-1v.1l.2-.4c-.1-.1-.1 0-.2 0 0-.1 0-.2.1-.3 0 .2.2.1.3.1l-.1-.1c.3 0-.2-.2.1-.3 0-.1 0-.2.1-.3.1 0 0 .1.1.2.1-.1-.1-.4.1-.5 0 .1-.1.2-.1.2.2 0 .2-.1.3-.2l.2-.2h-.1c-.2-.4.2-.4.1-.7.1.3.1.1.2.2.1 0 .2-.1.2-.1-.1-.2.2-.2.1-.4.1 0 .1-.1.2 0 0-.2-.1 0-.2 0-.1-.3.4-.5.3-.9 0-.3-.1-.4-.2-.7.1 0 .2.1.2.1.1-.1.1-.3.1-.4h.1c0-.1-.2-.1-.1-.3.1 0 .1.1.2.1 0-.2-.1-.3-.2-.5-1.1.6-1 .7-1 .8zm-8.2-2.7zm-.1.2v.1c0-.1-.1-.1 0-.1-.1 0-.1 0 0 0zm5.5 7.7s-.1 0-.1-.1l.1-.1v.2zm2.2-3.6h-.1c0-.1 0-.1.1-.2v.2zm.1-1.1V90l.1.2h-.1z" data-color="2" class="icon2"></path><path d="M170 92.7c-.1 0-.1 0 0 0z" data-color="2" class="icon2"></path><path d="M160.7 101.3c-.1.1-.1.1 0 0z" data-color="2" class="icon2"></path><path d="M163.8 98.9s0 .1-.1.1c.1 0 .2 0 .1-.1z" data-color="2" class="icon2"></path><path d="M171 89.2s0-.1 0 0z" data-color="2" class="icon2"></path><path d="M170.8 90.7c0-.1.2-.2.1-.3 0 .1-.2.2-.1.3z" data-color="2" class="icon2"></path><path d="M165.2 98.1h.1V98l-.1.1z" data-color="2" class="icon2"></path></g></g>
</svg>
</g><g opacity="1" transform="rotate(0 182.8724 351.8338)">
<svg width="297.2743" height="24" x="182.8724" y="351.8338" version="1.1" preserveAspectRatio="none" viewBox="1.88 -29.68 370.6 29.92">
  <g transform="matrix(1 0 0 1 0 0)" class="text"><path id="id-6izo4zJp15" d="M12.28 0.24Q9.16 0.24 6.30-0.76Q3.44-1.76 1.88-3.40L1.88-3.40L3.04-5.68Q4.56-4.16 7.08-3.22Q9.60-2.28 12.28-2.28L12.28-2.28Q16.04-2.28 17.92-3.66Q19.80-5.04 19.80-7.24L19.80-7.24Q19.80-8.92 18.78-9.92Q17.76-10.92 16.28-11.46Q14.80-12 12.16-12.64L12.16-12.64Q9-13.44 7.12-14.18Q5.24-14.92 3.90-16.44Q2.56-17.96 2.56-20.56L2.56-20.56Q2.56-22.68 3.68-24.42Q4.80-26.16 7.12-27.20Q9.44-28.24 12.88-28.24L12.88-28.24Q15.28-28.24 17.58-27.58Q19.88-26.92 21.56-25.76L21.56-25.76L20.56-23.40Q18.80-24.56 16.80-25.14Q14.80-25.72 12.88-25.72L12.88-25.72Q9.20-25.72 7.34-24.30Q5.48-22.88 5.48-20.64L5.48-20.64Q5.48-18.96 6.50-17.94Q7.52-16.92 9.06-16.38Q10.60-15.84 13.20-15.20L13.20-15.20Q16.28-14.44 18.18-13.70Q20.08-12.96 21.40-11.46Q22.72-9.96 22.72-7.40L22.72-7.40Q22.72-5.28 21.58-3.54Q20.44-1.80 18.08-0.78Q15.72 0.24 12.28 0.24L12.28 0.24Z M50.92-10.52L50.88-9.64L33.28-9.64Q33.52-6.36 35.80-4.34Q38.08-2.32 41.56-2.32L41.56-2.32Q43.52-2.32 45.16-3.02Q46.80-3.72 48-5.08L48-5.08L49.60-3.24Q48.20-1.56 46.10-0.68Q44 0.20 41.48 0.20L41.48 0.20Q38.24 0.20 35.74-1.18Q33.24-2.56 31.84-5Q30.44-7.44 30.44-10.52L30.44-10.52Q30.44-13.60 31.78-16.04Q33.12-18.48 35.46-19.84Q37.80-21.20 40.72-21.20L40.72-21.20Q43.64-21.20 45.96-19.84Q48.28-18.48 49.60-16.06Q50.92-13.64 50.92-10.52L50.92-10.52ZM40.72-18.76Q37.68-18.76 35.62-16.82Q33.56-14.88 33.28-11.76L33.28-11.76L48.20-11.76Q47.92-14.88 45.86-16.82Q43.80-18.76 40.72-18.76L40.72-18.76Z M67.48-21.20Q71.60-21.20 73.80-19.14Q76-17.08 76-13.04L76-13.04L76 0L73.28 0L73.28-3.28Q72.32-1.64 70.46-0.72Q68.60 0.20 66.04 0.20L66.04 0.20Q62.52 0.20 60.44-1.48Q58.36-3.16 58.36-5.92L58.36-5.92Q58.36-8.60 60.30-10.24Q62.24-11.88 66.48-11.88L66.48-11.88L73.16-11.88L73.16-13.16Q73.16-15.88 71.64-17.30Q70.12-18.72 67.20-18.72L67.20-18.72Q65.20-18.72 63.36-18.06Q61.52-17.40 60.20-16.24L60.20-16.24L58.92-18.36Q60.52-19.72 62.76-20.46Q65-21.20 67.48-21.20L67.48-21.20ZM66.48-2.04Q68.88-2.04 70.60-3.14Q72.32-4.24 73.16-6.32L73.16-6.32L73.16-9.76L66.56-9.76Q61.16-9.76 61.16-6L61.16-6Q61.16-4.16 62.56-3.10Q63.96-2.04 66.48-2.04L66.48-2.04Z M113.96-21.20Q117.92-21.20 120.18-18.92Q122.44-16.64 122.44-12.20L122.44-12.20L122.44 0L119.60 0L119.60-11.92Q119.60-15.20 118.02-16.92Q116.44-18.64 113.56-18.64L113.56-18.64Q110.28-18.64 108.40-16.62Q106.52-14.60 106.52-11.04L106.52-11.04L106.52 0L103.68 0L103.68-11.92Q103.68-15.20 102.10-16.92Q100.52-18.64 97.60-18.64L97.60-18.64Q94.36-18.64 92.46-16.62Q90.56-14.60 90.56-11.04L90.56-11.04L90.56 0L87.72 0L87.72-21.04L90.44-21.04L90.44-17.20Q91.56-19.12 93.56-20.16Q95.56-21.20 98.16-21.20L98.16-21.20Q100.80-21.20 102.74-20.08Q104.68-18.96 105.64-16.76L105.64-16.76Q106.80-18.84 108.98-20.02Q111.16-21.20 113.96-21.20L113.96-21.20Z M134.16 0L134.16-29.68L137-29.68L137 0L134.16 0Z M167.28-10.52L167.24-9.64L149.64-9.64Q149.88-6.36 152.16-4.34Q154.44-2.32 157.92-2.32L157.92-2.32Q159.88-2.32 161.52-3.02Q163.16-3.72 164.36-5.08L164.36-5.08L165.96-3.24Q164.56-1.56 162.46-0.68Q160.36 0.20 157.84 0.20L157.84 0.20Q154.60 0.20 152.10-1.18Q149.60-2.56 148.20-5Q146.80-7.44 146.80-10.52L146.80-10.52Q146.80-13.60 148.14-16.04Q149.48-18.48 151.82-19.84Q154.16-21.20 157.08-21.20L157.08-21.20Q160.00-21.20 162.32-19.84Q164.64-18.48 165.96-16.06Q167.28-13.64 167.28-10.52L167.28-10.52ZM157.08-18.76Q154.04-18.76 151.98-16.82Q149.92-14.88 149.64-11.76L149.64-11.76L164.56-11.76Q164.28-14.88 162.22-16.82Q160.16-18.76 157.08-18.76L157.08-18.76Z M182.72 0.20Q180.16 0.20 177.82-0.54Q175.48-1.28 174.16-2.40L174.16-2.40L175.44-4.64Q176.76-3.60 178.76-2.94Q180.76-2.28 182.92-2.28L182.92-2.28Q185.80-2.28 187.18-3.18Q188.56-4.08 188.56-5.72L188.56-5.72Q188.56-6.88 187.80-7.54Q187.04-8.20 185.88-8.54Q184.72-8.88 182.80-9.20L182.80-9.20Q180.24-9.68 178.68-10.18Q177.12-10.68 176.02-11.88Q174.92-13.08 174.92-15.20L174.92-15.20Q174.92-17.84 177.12-19.52Q179.32-21.20 183.24-21.20L183.24-21.20Q185.28-21.20 187.32-20.66Q189.36-20.12 190.68-19.24L190.68-19.24L189.44-16.96Q186.84-18.76 183.24-18.76L183.24-18.76Q180.52-18.76 179.14-17.80Q177.76-16.84 177.76-15.28L177.76-15.28Q177.76-14.08 178.54-13.36Q179.32-12.64 180.48-12.30Q181.64-11.96 183.68-11.60L183.68-11.60Q186.20-11.12 187.72-10.64Q189.24-10.16 190.32-9Q191.40-7.84 191.40-5.80L191.40-5.80Q191.40-3.04 189.10-1.42Q186.80 0.20 182.72 0.20L182.72 0.20Z M206.28 0.20Q203.72 0.20 201.38-0.54Q199.04-1.28 197.72-2.40L197.72-2.40L199.00-4.64Q200.32-3.60 202.32-2.94Q204.32-2.28 206.48-2.28L206.48-2.28Q209.36-2.28 210.74-3.18Q212.12-4.08 212.12-5.72L212.12-5.72Q212.12-6.88 211.36-7.54Q210.60-8.20 209.44-8.54Q208.28-8.88 206.36-9.20L206.36-9.20Q203.80-9.68 202.24-10.18Q200.68-10.68 199.58-11.88Q198.48-13.08 198.48-15.20L198.48-15.20Q198.48-17.84 200.68-19.52Q202.88-21.20 206.80-21.20L206.80-21.20Q208.84-21.20 210.88-20.66Q212.92-20.12 214.24-19.24L214.24-19.24L213.00-16.96Q210.40-18.76 206.80-18.76L206.80-18.76Q204.08-18.76 202.70-17.80Q201.32-16.84 201.32-15.28L201.32-15.28Q201.32-14.08 202.10-13.36Q202.88-12.64 204.04-12.30Q205.20-11.96 207.24-11.60L207.24-11.60Q209.76-11.12 211.28-10.64Q212.80-10.16 213.88-9Q214.96-7.84 214.96-5.80L214.96-5.80Q214.96-3.04 212.66-1.42Q210.36 0.20 206.28 0.20L206.28 0.20Z M244.72 0L244.72-25.44L234.88-25.44L234.88-28L257.52-28L257.52-25.44L247.68-25.44L247.68 0L244.72 0Z M265.08 0L265.08-21.04L267.92-21.04L267.92 0L265.08 0ZM266.52-25.64Q265.64-25.64 265.04-26.24Q264.44-26.84 264.44-27.68L264.44-27.68Q264.44-28.48 265.04-29.08Q265.64-29.68 266.52-29.68L266.52-29.68Q267.40-29.68 268.00-29.10Q268.60-28.52 268.60-27.72L268.60-27.72Q268.60-26.84 268.00-26.24Q267.40-25.64 266.52-25.64L266.52-25.64Z M288.56 0.20Q285.44 0.20 282.98-1.16Q280.52-2.52 279.12-4.98Q277.72-7.44 277.72-10.52L277.72-10.52Q277.72-13.60 279.12-16.04Q280.52-18.48 282.98-19.84Q285.44-21.20 288.56-21.20L288.56-21.20Q291.28-21.20 293.42-20.14Q295.56-19.08 296.80-17.04L296.80-17.04L294.68-15.60Q293.64-17.16 292.04-17.94Q290.44-18.72 288.56-18.72L288.56-18.72Q286.28-18.72 284.46-17.70Q282.64-16.68 281.62-14.80Q280.60-12.92 280.60-10.52L280.60-10.52Q280.60-8.08 281.62-6.22Q282.64-4.36 284.46-3.34Q286.28-2.32 288.56-2.32L288.56-2.32Q290.44-2.32 292.04-3.08Q293.64-3.84 294.68-5.40L294.68-5.40L296.80-3.96Q295.56-1.92 293.40-0.86Q291.24 0.20 288.56 0.20L288.56 0.20Z M322.32 0L313.84-10.56L308.88-6L308.88 0L306.04 0L306.04-29.68L308.88-29.68L308.88-9.56L321.44-21.04L324.96-21.04L315.96-12.44L325.80 0L322.32 0Z M351.60-10.52L351.56-9.64L333.96-9.64Q334.20-6.36 336.48-4.34Q338.76-2.32 342.24-2.32L342.24-2.32Q344.20-2.32 345.84-3.02Q347.48-3.72 348.68-5.08L348.68-5.08L350.28-3.24Q348.88-1.56 346.78-0.68Q344.68 0.20 342.16 0.20L342.16 0.20Q338.92 0.20 336.42-1.18Q333.92-2.56 332.52-5Q331.12-7.44 331.12-10.52L331.12-10.52Q331.12-13.60 332.46-16.04Q333.80-18.48 336.14-19.84Q338.48-21.20 341.40-21.20L341.40-21.20Q344.32-21.20 346.64-19.84Q348.96-18.48 350.28-16.06Q351.60-13.64 351.60-10.52L351.60-10.52ZM341.40-18.76Q338.36-18.76 336.30-16.82Q334.24-14.88 333.96-11.76L333.96-11.76L348.88-11.76Q348.60-14.88 346.54-16.82Q344.48-18.76 341.40-18.76L341.40-18.76Z M371.48-3.32L372.48-1.28Q371.68-0.56 370.50-0.18Q369.32 0.20 368.04 0.20L368.04 0.20Q365.08 0.20 363.48-1.40Q361.88-3 361.88-5.92L361.88-5.92L361.88-18.64L358.12-18.64L358.12-21.04L361.88-21.04L361.88-25.64L364.72-25.64L364.72-21.04L371.12-21.04L371.12-18.64L364.72-18.64L364.72-6.08Q364.72-4.20 365.66-3.22Q366.60-2.24 368.36-2.24L368.36-2.24Q369.24-2.24 370.06-2.52Q370.88-2.80 371.48-3.32L371.48-3.32Z"/></g>
</svg>
</g><g opacity="1" transform="rotate(0 182.8724 251.8338)">
<svg width="357.9977" height="80" x="182.8724" y="251.8338" version="1.1" preserveAspectRatio="none" viewBox="0.7617 -29.1406 171.1328 38.2422">
  <g transform="matrix(1 0 0 1 0 0)" class="companyName"><path id="id-D6z1nYkh9" d="M8.22-24.06L8.22-24.06Q6.60-24.06 4.80-22.58L4.80-22.58Q1.93-20.20 1.78-20.20L1.78-20.20Q0.76-20.20 0.76-21.46L0.76-21.46L0.76-22.07Q0.76-24.18 1.11-25.88L1.11-25.88Q1.29-26.76 1.90-26.93Q2.52-27.11 13.65-27.11L13.65-27.11L20.98-27.15L22.27-27.15Q24.38-27.15 24.78-26.46Q25.18-25.78 25.18-23.48L25.18-23.48L25.18-22.23Q25.18-20.16 24.22-20.16L24.22-20.16Q23.38-20.16 22.19-21.50Q21.00-22.85 20-23.45Q19.00-24.04 17.38-24.04L17.38-24.04Q16.09-24.04 15.88-22.34L15.88-22.34Q15.80-21.76 15.80-13.62Q15.80-5.49 16.02-4.61Q16.23-3.73 17.62-2.72Q19.00-1.72 19.00-1.03Q19.00-0.33 18.30-0.16Q17.60 0.02 13.75 0.02L13.75 0.02L10.47 0.02Q8.54 0.02 7.82-0.12Q7.11-0.25 7.11-0.90Q7.11-1.54 8.44-2.73Q9.77-3.93 10-4.81Q10.23-5.70 10.23-13.67Q10.23-21.64 10.08-22.45Q9.92-23.26 9.54-23.66Q9.16-24.06 8.22-24.06Z M29.47-24.82L29.47-25.33Q29.47-26.46 30.36-27.25Q31.25-28.03 32.29-28.03L32.29-28.03L32.91-28.03Q33.20-27.97 33.40-27.97L33.40-27.97Q34.34-27.97 35.06-27.13Q35.78-26.29 35.78-25.53L35.78-25.53L35.78-25.02Q35.74-24.82 35.74-24.73L35.74-24.73Q35.74-23.91 34.82-23.13Q33.91-22.34 32.79-22.34L32.79-22.34L32.19-22.34Q31.09-22.34 30.30-23.04Q29.51-23.73 29.51-24.63L29.51-24.63L29.47-24.82ZM33.18 0.08L33.18 0.08L31.33 0.08Q28.73 0.08 28.21-0.07Q27.70-0.21 27.70-0.91Q27.70-1.60 28.67-2.58Q29.65-3.55 29.90-4.54Q30.16-5.53 30.16-9.68Q30.16-13.83 29.94-14.57Q29.73-15.31 28.60-15.85Q27.48-16.39 27.48-17.14Q27.48-17.89 28.52-18.24L28.52-18.24Q30.86-19.02 33.69-19.02L33.69-19.02L33.98-19.02Q35.12-19.02 35.29-18.07L35.29-18.07Q35.39-17.52 35.39-11.51Q35.39-5.51 35.65-4.48Q35.92-3.46 37.01-2.30Q38.11-1.15 38.11-0.86L38.11-0.86L38.11-0.63Q38.11 0.08 33.18 0.08Z M56.66-4.16L56.66-4.16Q57.42-4.16 57.42-3.12Q57.42-2.07 54.96-0.84Q52.50 0.39 50.16 0.39L50.16 0.39L49.71 0.39Q47.77 0.39 46.04-0.37L46.04-0.37Q42.64-1.86 41.35-5.43L41.35-5.43Q40.72-7.19 40.72-8.93L40.72-8.93L40.72-9.39Q40.72-13.34 43.32-16.23L43.32-16.23Q44.63-17.68 46.49-18.45Q48.36-19.22 50.33-19.22L50.33-19.22Q54.04-19.22 56.05-18.11L56.05-18.11Q57.25-17.44 57.25-15.94L57.25-15.94Q57.25-13.22 55.53-13.22L55.53-13.22Q54.47-13.22 53.04-14.77Q51.60-16.31 50-16.31L50-16.31Q48.07-16.31 46.82-13.91L46.82-13.91Q46.11-12.54 46.09-9.59L46.09-9.59Q46.09-9.55 46.09-9.51L46.09-9.51Q46.09-6.68 47.56-4.84L47.56-4.84Q49.04-2.99 51.33-2.99L51.33-2.99Q52.60-2.99 54.44-3.57Q56.29-4.16 56.66-4.16Z M77.15-18.77L77.15-18.77Q80.98-18.77 81.00-17.66L81.00-17.66Q81.00-17.01 78.55-15.55L78.55-15.55Q73.67-12.60 73.67-10.76L73.67-10.76Q73.67-10.10 77.66-5.55L77.66-5.55Q79.04-3.96 80.69-2.71Q82.34-1.46 82.34-0.97Q82.34-0.47 81.87-0.22Q81.39 0.02 78.36 0.02L78.36 0.02L77.60 0.02Q74.67 0.02 73.71-0.94L73.71-0.94Q73.14-1.50 72.88-2.90Q72.62-4.30 71.99-5.27L71.99-5.27Q70.57-7.52 69.28-7.52L69.28-7.52Q68.48-7.52 68.48-5.63Q68.48-3.73 69.28-2.17L69.28-2.17Q69.63-1.48 69.63-1.33L69.63-1.33Q69.63-0.47 68.34-0.16L68.34-0.16Q67.68 0 65.21 0Q62.73 0 61.97-0.20L61.97-0.20Q60.84-0.49 60.84-1.21L60.84-1.21Q60.84-1.62 61.59-2.86Q62.34-4.10 62.46-4.77L62.46-4.77Q62.75-6.45 62.75-15.29Q62.75-24.14 62.52-24.76Q62.29-25.37 61.14-25.98Q60-26.58 60-27.31Q60-28.05 61.05-28.42L61.05-28.42Q63.07-29.14 65.47-29.14L65.47-29.14L66.15-29.14Q67.38-29.14 67.73-27.71L67.73-27.71Q67.99-26.70 67.99-20.03Q67.99-13.36 68.05-12.93L68.05-12.93Q68.22-11.56 68.87-11.56L68.87-11.56Q69.75-11.56 71.89-13.95L71.89-13.95Q73.22-15.41 73.22-16.45L73.22-16.45L72.95-17.62Q72.95-18.28 73.76-18.53Q74.57-18.77 77.15-18.77Z M93.55-16.66L93.55-16.66L92.99-16.66Q91.76-16.66 90.63-15.38Q89.51-14.10 89.51-12.32L89.51-12.32L89.51-12.01Q89.51-11.29 90.31-11.29L90.31-11.29L90.51-11.25L91.89-11.25L91.99-11.27L95.25-11.46Q95.55-11.52 95.64-11.52L95.64-11.52Q96.64-11.52 96.64-12.56L96.64-12.56L96.64-13.20Q96.64-14.51 95.70-15.59Q94.77-16.66 93.55-16.66ZM89.75-7.36L89.75-7.36Q89.75-5.41 91.58-3.98L91.58-3.98Q92.95-2.91 95.06-2.91L95.06-2.91Q96.02-2.91 97.90-3.46Q99.79-4.00 100.08-4.00L100.08-4.00Q100.96-4.00 100.96-3.05L100.96-3.05Q100.96-1.91 98.62-0.75Q96.29 0.41 93.79 0.41L93.79 0.41L92.93 0.41Q92.89 0.41 92.83 0.41L92.83 0.41Q91.25 0.41 89.61-0.23L89.61-0.23Q86.37-1.48 85-4.61L85-4.61Q84.06-6.76 84.06-8.69L84.06-8.69L84.06-9.59Q84.06-11.56 84.75-13.40L84.75-13.40Q86.04-16.86 89.30-18.38L89.30-18.38Q91.25-19.28 93.40-19.28L93.40-19.28L93.85-19.28Q97.03-19.28 99.22-17.30L99.22-17.30Q100.37-16.25 100.99-14.77Q101.60-13.28 101.60-11.75Q101.60-10.21 100.10-9.73L100.10-9.73Q97.99-9.04 92.29-9.04L92.29-9.04Q90.76-9.04 90.25-8.66Q89.75-8.28 89.75-7.36Z M105.25-16.21Q104.39-16.80 104.39-17.35Q104.39-17.91 105.43-18.46Q106.46-19.00 106.72-19.34Q106.97-19.67 107.53-21.17Q108.09-22.68 108.71-23.49Q109.34-24.30 110.35-24.30Q111.37-24.30 111.82-23.48L111.82-23.48Q112.01-23.11 112.33-21.72Q112.66-20.33 113.11-19.94Q113.55-19.55 114.82-19.07Q116.09-18.59 116.13-18.57L116.13-18.57Q116.80-18.05 116.80-17.32L116.80-17.32Q116.80-16.70 114.95-16.21Q113.11-15.72 112.59-14.73Q112.07-13.73 112.07-9.75Q112.07-5.76 112.69-4.57Q113.30-3.38 114.71-3.38L114.71-3.38L115.41-3.44Q115.88-3.48 116.43-3.48L116.43-3.48Q117.62-3.48 117.62-2.58L117.62-2.58Q117.62-1.43 116.17-0.74L116.17-0.74Q114.10 0.23 111.80 0.23L111.80 0.23Q110.72 0.23 109.65-0.35Q108.57-0.94 108.01-1.78L108.01-1.78Q106.89-3.42 106.89-6.46L106.89-6.46L106.88-6.88Q106.86-7.30 106.86-7.83L106.86-7.83L106.86-8.98Q106.86-12.36 106.31-14.75L106.31-14.75Q106.11-15.63 105.25-16.21Z M141.64-13.20L141.62-13.34L141.58-14.00Q141.58-15.51 140.77-16.55Q139.96-17.60 138.87-17.60L138.87-17.60L138.63-17.60Q137.64-17.60 136.88-16.46Q136.11-15.31 136.11-13.75L136.11-13.75L136.11-12.75Q136.11-10.88 137.00-9.61Q137.89-8.34 138.95-8.34L138.95-8.34L139.08-8.34Q140.08-8.34 140.83-9.31Q141.58-10.27 141.58-11.54L141.58-11.54L141.60-11.66L141.62-11.80L141.64-12.21L141.64-13.20ZM142.70 0.18L142.70 0.18Q141.76 0.02 141.05 0.02L141.05 0.02L140.90 0L140.76-0.02L139.88-0.08Q139.73-0.10 139.61-0.10L139.61-0.10L138.96-0.16L138.54-0.16L138.40-0.14L137.99-0.12L137.46-0.06Q136.52-0.06 135.76 0.77Q135 1.60 135 2.75L135 2.75L135 3.16Q135 4.41 135.97 5.09Q136.93 5.76 138.42 5.76L138.42 5.76L139.28 5.76Q141.78 5.76 143.65 4.39L143.65 4.39Q144.82 3.54 144.82 1.97L144.82 1.97L144.80 1.84Q144.80 1.23 144.28 0.70Q143.75 0.18 142.70 0.18ZM149.35-18.49Q149.71-18.11 149.71-17.30Q149.71-16.50 148.93-16.15L148.93-16.15Q147.60-15.57 147.52-15.41L147.52-15.41Q147.29-14.96 147.29-13.96L147.29-13.96L147.30-13.46Q147.36-12.66 147.36-12.29L147.36-12.29Q147.36-11.02 146.72-9.80L146.72-9.80Q144.96-6.45 140.23-5.88L140.23-5.88Q138.14-5.63 138.07-5.61L138.07-5.61Q136.84-5.20 136.84-4.38L136.84-4.38Q136.84-3.65 137.62-3.39Q138.40-3.13 141.94-2.89Q145.49-2.66 146.73-1.99Q147.97-1.33 148.53-0.46Q149.08 0.41 149.08 1.97Q149.08 3.54 148.18 4.82L148.18 4.82Q146.35 7.46 142.40 8.55L142.40 8.55Q140.45 9.10 138.34 9.10L138.34 9.10L137.73 9.10Q134.14 9.10 132.24 7.76Q130.33 6.43 130.33 4.49L130.33 4.49Q130.33 3.20 131.17 2.03L131.17 2.03Q131.33 1.82 132.00 1.07Q132.68 0.33 132.68-0.06L132.68-0.06Q132.68-0.10 131.97-1.08Q131.27-2.07 131.27-3.07Q131.27-4.06 132.32-5.43Q133.38-6.80 133.38-6.97Q133.38-7.15 132.34-8.28L132.34-8.28Q131.33-9.45 130.86-11.13L130.86-11.13Q130.70-11.70 130.70-12.30L130.70-12.30Q130.70-12.36 130.70-12.44L130.70-12.44Q130.70-13.55 131.15-14.69L131.15-14.69Q131.89-16.56 133.55-17.58L133.55-17.58Q135.84-19.00 138.87-19.00L138.87-19.00L139.45-19.00Q139.61-19.00 141.76-18.85L141.76-18.85L142.81-18.73Q143.69-18.63 143.83-18.63L143.83-18.63L148.07-18.87Q148.98-18.87 149.35-18.49Z M161.86-16.74L161.86-16.74L161.48-16.74Q159.80-16.74 158.74-14.84Q157.68-12.95 157.68-10.31L157.68-10.31L157.68-9.22Q157.68-6.25 158.91-4.20Q160.14-2.15 161.86-2.15L161.86-2.15L162.23-2.15Q163.73-2.15 164.85-3.68Q165.98-5.21 165.98-7.77L165.98-7.77L166.02-8.18L166.04-9.00L166.04-9.22L166.02-9.43L166.02-9.84Q165.98-10.27 165.98-10.47L165.98-10.47Q165.98-13.07 164.75-14.90Q163.52-16.74 161.86-16.74ZM161.88-19.34L161.88-19.34L162.85-19.34Q164.59-19.34 166.43-18.52L166.43-18.52Q169.92-16.95 171.23-13.44L171.23-13.44Q171.89-11.62 171.89-9.73L171.89-9.73L171.89-9.38Q171.89-7.34 171.07-5.39Q170.25-3.44 168.87-2.15L168.87-2.15Q165.98 0.47 162.23 0.47L162.23 0.47Q161.93 0.47 161.64 0.45L161.64 0.45Q159.77 0.45 157.96-0.30Q156.15-1.05 155-2.30L155-2.30Q152.52-5.04 152.52-9.16L152.52-9.16L152.52-9.49L152.54-9.82Q152.56-11.64 153.22-13.42L153.22-13.42Q154.51-16.82 157.95-18.44L157.95-18.44Q159.88-19.34 161.88-19.34Z"/></g>
</svg>
</g></svg></svg>